<?xml version="1.0" encoding="utf-8"?>
<svg fill="none" height="20" viewBox="0 0 20 20" width="20" xmlns="http://www.w3.org/2000/svg">
  <g>
    <g>
      <path
        d="M8.125 0C7.08947 0 6.25 0.839466 6.25 1.875C6.25 1.875 6.25 2.5 6.25 2.5C6.25 2.5 1.875 2.5 1.875 2.5C0.839466 2.5 0 3.33947 0 4.375C0 4.375 0 14.375 0 14.375C0 15.4105 0.839466 16.25 1.875 16.25C1.875 16.25 18.125 16.25 18.125 16.25C19.1605 16.25 20 15.4105 20 14.375C20 14.375 20 4.375 20 4.375C20 3.33947 19.1605 2.5 18.125 2.5C18.125 2.5 13.75 2.5 13.75 2.5C13.75 2.5 13.75 1.875 13.75 1.875C13.75 0.839466 12.9105 0 11.875 0C11.875 0 8.125 0 8.125 0ZM8.125 1.25C8.125 1.25 11.875 1.25 11.875 1.25C12.2202 1.25 12.5 1.52982 12.5 1.875C12.5 1.875 12.5 2.5 12.5 2.5L7.5 2.5C7.5 2.5 7.5 1.875 7.5 1.875C7.5 1.52982 7.77982 1.25 8.125 1.25C8.125 1.25 8.125 1.25 8.125 1.25ZM10.4825 9.8925L18.75 7.68875C18.75 7.68875 18.75 14.375 18.75 14.375C18.75 14.7202 18.4702 15 18.125 15C18.125 15 1.875 15 1.875 15C1.52982 15 1.25 14.7202 1.25 14.375C1.25 14.375 1.25 7.6875 1.25 7.6875C1.25 7.6875 9.5175 9.8925 9.5175 9.8925C9.83366 9.97669 10.1663 9.97669 10.4825 9.8925C10.4825 9.8925 10.4825 9.8925 10.4825 9.8925ZM1.875 3.75C1.875 3.75 18.125 3.75 18.125 3.75C18.4702 3.75 18.75 4.02982 18.75 4.375C18.75 4.375 18.75 6.395 18.75 6.395C18.75 6.395 10.1613 8.685 10.1613 8.685C10.0556 8.71321 9.9444 8.71321 9.83875 8.685C9.83875 8.685 1.25 6.395 1.25 6.395C1.25 6.395 1.25 4.375 1.25 4.375C1.25 4.02982 1.52982 3.75 1.875 3.75C1.875 3.75 1.875 3.75 1.875 3.75Z"
        fill="#FFFFFF" transform="translate(0 1.25)" />
    </g>
  </g>
</svg>
