<?xml version="1.0" encoding="utf-8"?>
<svg fill="none" height="20" viewBox="0 0 20 20" width="20" xmlns="http://www.w3.org/2000/svg">
  <g>
    <path
      d="M1.25 0.625C1.25 0.279822 0.970178 0 0.625 0C0.279821 0 0 0.279822 0 0.625C0 0.625 0 7.5 0 7.5C7.72476e-05 7.72426 0.120289 7.93128 0.315012 8.04251C0.315012 8.04251 4.69001 10.5425 4.69001 10.5425C4.98861 10.7039 5.36143 10.5975 5.52983 10.3028C5.69823 10.0081 5.60064 9.63283 5.31001 9.45751C5.31001 9.45751 1.25 7.1375 1.25 7.1375C1.25 7.1375 1.25 0.625 1.25 0.625Z"
      fill="#FFFFFF" fill-rule="evenodd" transform="translate(8.75 3.75)" />
    <path
      d="M10 20C15.5228 20 20 15.5228 20 10C20 4.47715 15.5228 0 10 0C4.47715 0 0 4.47715 0 10C5.96046e-07 15.5228 4.47715 20 10 20C10 20 10 20 10 20ZM18.75 10C18.75 14.8325 14.8325 18.75 10 18.75C5.16751 18.75 1.25 14.8325 1.25 10C1.25 5.16751 5.16751 1.25 10 1.25C14.8325 1.25 18.75 5.16751 18.75 10C18.75 10 18.75 10 18.75 10Z"
      fill="#FFFFFF" />
  </g>
</svg>
