<?xml version="1.0" encoding="utf-8"?>
<svg fill="none" height="20" viewBox="0 0 20 20" width="20" xmlns="http://www.w3.org/2000/svg">
  <g>
    <g>
      <path
        d="M3.7125 0.4375C3.95 0.159828 4.29711 -2.39611e-05 4.6625 0C4.6625 0 15.3375 0 15.3375 0C15.7029 -2.40803e-05 16.05 0.159828 16.2875 0.4375C16.2875 0.4375 19.5487 4.2425 19.5487 4.2425C19.8399 4.58229 20 5.01502 20 5.4625C20 5.4625 20 5.78125 20 5.78125C20 7.05001 19.1941 8.17832 17.9943 8.58979C16.7944 9.00126 15.4657 8.60497 14.6873 7.60349C14.1255 8.32758 13.2602 8.7509 12.3438 8.75C11.4273 8.75103 10.5619 8.3278 10 7.60375C9.43811 8.3278 8.57275 8.75103 7.65625 8.75C6.73975 8.75103 5.87439 8.3278 5.3125 7.60375C4.53396 8.60514 3.2052 9.00128 2.00541 8.58968C0.805612 8.17808 -0.000140369 7.04968 0 5.78125C0 5.78125 0 5.4625 0 5.4625C0 5.01508 0.16004 4.58235 0.451207 4.24255C0.451207 4.24255 3.7125 0.4375 3.7125 0.4375ZM5.9375 5.78125C5.9375 6.73049 6.70701 7.5 7.65625 7.5C8.60549 7.5 9.375 6.73049 9.375 5.78125C9.375 5.43607 9.65482 5.15625 10 5.15625C10.3452 5.15625 10.625 5.43607 10.625 5.78125C10.625 6.73049 11.3945 7.5 12.3438 7.5C13.293 7.5 14.0625 6.73049 14.0625 5.78125C14.0625 5.43607 14.3423 5.15625 14.6875 5.15625C15.0327 5.15625 15.3125 5.43607 15.3125 5.78125C15.3125 6.73049 16.082 7.5 17.0312 7.5C17.9805 7.5 18.75 6.73049 18.75 5.78125C18.75 5.78125 18.75 5.4625 18.75 5.4625C18.75 5.31349 18.6968 5.16942 18.6 5.05621C18.6 5.05621 15.3375 1.25 15.3375 1.25L4.6625 1.25C4.6625 1.25 1.4 5.05625 1.4 5.05625C1.30318 5.16946 1.24999 5.31353 1.25 5.4625C1.25 5.4625 1.25 5.78125 1.25 5.78125C1.25 6.73049 2.01951 7.5 2.96875 7.5C3.91799 7.5 4.6875 6.73049 4.6875 5.78125C4.6875 5.43607 4.96732 5.15625 5.3125 5.15625C5.65768 5.15625 5.9375 5.43607 5.9375 5.78125C5.9375 5.78125 5.9375 5.78125 5.9375 5.78125ZM1.875 9.375C2.22018 9.375 2.5 9.65482 2.5 10C2.5 10 2.5 17.5 2.5 17.5L17.5 17.5C17.5 17.5 17.5 10 17.5 10C17.5 9.65482 17.7798 9.375 18.125 9.375C18.4702 9.375 18.75 9.65482 18.75 10C18.75 10 18.75 17.5 18.75 17.5C18.75 17.5 19.375 17.5 19.375 17.5C19.7202 17.5 20 17.7798 20 18.125C20 18.4702 19.7202 18.75 19.375 18.75C19.375 18.75 0.625 18.75 0.625 18.75C0.279822 18.75 0 18.4702 0 18.125C3.72529e-08 17.7798 0.279822 17.5 0.625 17.5C0.625 17.5 1.25 17.5 1.25 17.5C1.25 17.5 1.25 10 1.25 10C1.25 9.65482 1.52982 9.375 1.875 9.375C1.875 9.375 1.875 9.375 1.875 9.375ZM4.375 10C4.72018 10 5 10.2798 5 10.625C5 10.625 5 15 5 15L15 15C15 15 15 10.625 15 10.625C15 10.2798 15.2798 10 15.625 10C15.9702 10 16.25 10.2798 16.25 10.625C16.25 10.625 16.25 15 16.25 15C16.25 15.6904 15.6904 16.25 15 16.25C15 16.25 5 16.25 5 16.25C4.30964 16.25 3.75 15.6904 3.75 15C3.75 15 3.75 10.625 3.75 10.625C3.75 10.2798 4.02982 10 4.375 10C4.375 10 4.375 10 4.375 10Z"
        fill="#FFFFFF" transform="translate(0 1.25)" />
    </g>
  </g>
</svg>
