<svg xmlns="http://www.w3.org/2000/svg" version="1.1" xmlns:xlink="http://www.w3.org/1999/xlink" xmlns:svgjs="http://svgjs.dev/svgjs" width="1000" height="1000"><g clip-path="url(#SvgjsClipPath1304)"><rect width="1000" height="1000" fill="#2a153d"></rect><g transform="matrix(2.508771741195107,0,0,2.508771741195107,150.00000000000003,175.30848932517625)"><svg xmlns="http://www.w3.org/2000/svg" version="1.1" xmlns:xlink="http://www.w3.org/1999/xlink" xmlns:svgjs="http://svgjs.dev/svgjs" width="279.021" height="258.845"><svg xmlns="http://www.w3.org/2000/svg" viewBox="0 0 279.021 258.845">
  <defs>
    <linearGradient id="a" x1="0" x2="1" y1="0" y2="0" gradientTransform="scale(175.11545 -175.11545) rotate(-9.866 -15.747 -29.054)" gradientUnits="userSpaceOnUse" spreadMethod="pad">
      <stop offset="0" stop-color="#f9005a"></stop>
      <stop offset=".219" stop-color="#f9005a"></stop>
      <stop offset="1" stop-color="#890b8b"></stop>
    </linearGradient>
    <linearGradient id="b" x1="0" x2="1" y1="0" y2="0" gradientTransform="matrix(173.36304 0 0 -173.36304 874.637 456.534)" gradientUnits="userSpaceOnUse" spreadMethod="pad">
      <stop offset="0" stop-color="#f9005a"></stop>
      <stop offset=".219" stop-color="#f9005a"></stop>
      <stop offset="1" stop-color="#890b8b"></stop>
    </linearGradient>
  <clipPath id="SvgjsClipPath1304"><rect width="1000" height="1000" x="0" y="0" rx="300" ry="300"></rect></clipPath></defs>
  <path fill="url(#a)" d="m873.091 605.202-33.956-.022c-.342-.001-.495-.175-.342-.389l63.145-87.678a7.332 7.332 0 0 1 5.93-3.052l51.559.035c2.011.001 3.859.988 4.935 2.636l48.082 73.638c.14.215-.026.389-.368.389l-33.956-.023c-13.266-.009-28.382-6.762-33.764-15.082l-12.385-18.968-24.112 33.48c-5.932 8.308-21.481 15.036-34.742 15.036h-.026" transform="matrix(1.33333 0 0 -1.33333 -1118.312 806.936)"></path>
  <path fill="url(#b)" d="m979.024 502-51.442-.035c-2.007-.001-3.85-.985-4.924-2.63l-47.972-73.47c-.138-.214.027-.387.367-.387l33.879.023c13.235.009 28.318 6.746 33.688 15.048l12.356 18.924 24.057-33.404c5.922-8.294 21.452-15.01 34.688-15.001l33.878.022c.341 0 .494.174.342.388l-63.001 87.478a7.317 7.317 0 0 1-5.911 3.044h-.005m-4.365-6.591c0 2.353 1.635 4.119 3.924 4.119 2.289 0 3.858-1.7 3.858-4.119 0-2.355-1.569-4.121-3.989-4.121-2.223 0-3.793 1.766-3.793 4.121m-16.806 0c0 2.353 1.635 4.119 3.924 4.119 2.289 0 3.858-1.7 3.858-4.119 0-2.355-1.569-4.121-3.989-4.121-2.224 0-3.793 1.766-3.793 4.121m-16.807 0c0 2.353 1.636 4.119 3.924 4.119 2.29 0 3.859-1.7 3.859-4.119 0-2.355-1.569-4.121-3.989-4.121-2.223 0-3.794 1.766-3.794 4.121m-16.805 0c0 2.353 1.635 4.119 3.924 4.119 2.288 0 3.858-1.7 3.858-4.119 0-2.355-1.57-4.121-3.989-4.121-2.224 0-3.793 1.766-3.793 4.121m59.772-10.259c0 2.013 1.399 3.522 3.355 3.522 1.957 0 3.299-1.453 3.299-3.522 0-2.013-1.342-3.523-3.41-3.523-1.902 0-3.244 1.51-3.244 3.523m-17.052 0c0 2.013 1.398 3.522 3.355 3.522s3.299-1.453 3.299-3.522c0-2.013-1.342-3.523-3.411-3.523-1.901 0-3.243 1.51-3.243 3.523m-17.052 0c0 2.013 1.397 3.522 3.355 3.522 1.956 0 3.298-1.453 3.298-3.522 0-2.013-1.342-3.523-3.41-3.523-1.902 0-3.243 1.51-3.243 3.523m-17.052 0c0 2.013 1.397 3.522 3.354 3.522s3.3-1.453 3.3-3.522c0-2.013-1.343-3.523-3.411-3.523-1.902 0-3.243 1.51-3.243 3.523m-17.053 0c0 2.013 1.399 3.522 3.355 3.522 1.957 0 3.299-1.453 3.299-3.522 0-2.013-1.342-3.523-3.41-3.523-1.902 0-3.244 1.51-3.244 3.523m74.889-10.116c0 1.902 1.321 3.329 3.172 3.329 1.849 0 3.117-1.375 3.117-3.329 0-1.903-1.268-3.33-3.224-3.33-1.796 0-3.065 1.427-3.065 3.33m-16.018 0c0 1.902 1.321 3.329 3.171 3.329 1.849 0 3.118-1.375 3.118-3.329 0-1.903-1.269-3.33-3.224-3.33-1.797 0-3.065 1.427-3.065 3.33m-17.016 0c0 1.902 1.321 3.329 3.17 3.329 1.85 0 3.119-1.375 3.119-3.329 0-1.903-1.269-3.33-3.224-3.33-1.797 0-3.065 1.427-3.065 3.33m-17.017 0c0 1.902 1.321 3.329 3.171 3.329 1.849 0 3.118-1.375 3.118-3.329 0-1.903-1.269-3.33-3.223-3.33-1.798 0-3.066 1.427-3.066 3.33m-17.016 0c0 1.902 1.321 3.329 3.171 3.329 1.849 0 3.118-1.375 3.118-3.329 0-1.903-1.269-3.33-3.224-3.33-1.797 0-3.065 1.427-3.065 3.33m-14.023 0c0 1.902 1.321 3.329 3.171 3.329 1.849 0 3.118-1.375 3.118-3.329 0-1.903-1.269-3.33-3.225-3.33-1.796 0-3.064 1.427-3.064 3.33m58.746-10.327c0 1.513 1.051 2.649 2.521 2.649 1.473 0 2.482-1.094 2.482-2.649 0-1.514-1.009-2.649-2.565-2.649-1.429 0-2.438 1.135-2.438 2.649m31.603-.186c0 1.513 1.051 2.649 2.523 2.649 1.471 0 2.48-1.093 2.48-2.649 0-1.513-1.009-2.648-2.565-2.648-1.429 0-2.438 1.135-2.438 2.648m-15.766 0c0 1.513 1.051 2.649 2.523 2.649 1.471 0 2.48-1.093 2.48-2.649 0-1.513-1.009-2.648-2.564-2.648-1.43 0-2.439 1.135-2.439 2.648m-33.527 0c0 1.513 1.051 2.649 2.523 2.649 1.471 0 2.48-1.093 2.48-2.649 0-1.513-1.009-2.648-2.565-2.648-1.429 0-2.438 1.135-2.438 2.648m-16.763 0c0 1.513 1.051 2.649 2.523 2.649 1.471 0 2.48-1.093 2.48-2.649 0-1.513-1.009-2.648-2.564-2.648-1.43 0-2.439 1.135-2.439 2.648m-16.764 0c0 1.513 1.052 2.649 2.523 2.649 1.472 0 2.48-1.093 2.48-2.649 0-1.513-1.008-2.648-2.564-2.648-1.43 0-2.439 1.135-2.439 2.648m-13.77 0c0 1.513 1.052 2.649 2.523 2.649 1.472 0 2.48-1.093 2.48-2.649 0-1.513-1.008-2.648-2.565-2.648-1.429 0-2.438 1.135-2.438 2.648m105.256-9.978c0 1.307.908 2.286 2.177 2.286 1.271 0 2.142-.943 2.142-2.286 0-1.306-.871-2.286-2.215-2.286-1.232 0-2.104.98-2.104 2.286m-16.365 0c0 1.307.907 2.286 2.177 2.286 1.271 0 2.141-.943 2.141-2.286 0-1.306-.87-2.286-2.213-2.286-1.234 0-2.105.98-2.105 2.286m-14.334 0c0 1.307.907 2.286 2.177 2.286 1.271 0 2.142-.943 2.142-2.286 0-1.306-.871-2.286-2.214-2.286-1.234 0-2.105.98-2.105 2.286m-14.333 0c0 1.307.907 2.286 2.178 2.286 1.27 0 2.141-.943 2.141-2.286 0-1.306-.871-2.286-2.214-2.286-1.234 0-2.105.98-2.105 2.286m-24.602 0c0 1.307.907 2.286 2.177 2.286 1.269 0 2.141-.943 2.141-2.286 0-1.306-.872-2.286-2.214-2.286-1.234 0-2.104.98-2.104 2.286m-14.334 0c0 1.307.907 2.286 2.177 2.286s2.141-.943 2.141-2.286c0-1.306-.871-2.286-2.214-2.286-1.234 0-2.104.98-2.104 2.286m-14.333 0c0 1.307.907 2.286 2.177 2.286s2.141-.943 2.141-2.286c0-1.306-.871-2.286-2.214-2.286-1.233 0-2.104.98-2.104 2.286m-14.334 0c0 1.307.908 2.286 2.177 2.286 1.27 0 2.142-.943 2.142-2.286 0-1.306-.872-2.286-2.215-2.286-1.233 0-2.104.98-2.104 2.286" transform="matrix(1.33333 0 0 -1.33333 -1118.312 806.936)"></path>
</svg></svg></g></g></svg>