<?xml version="1.0" encoding="utf-8"?>
<svg fill="none" height="20" viewBox="0 0 10.771 20" width="10.771" xmlns="http://www.w3.org/2000/svg">
  <path
    d="M10.5447 0.225779C10.6893 0.370077 10.7706 0.566008 10.7706 0.770335C10.7706 0.974663 10.6893 1.17059 10.5447 1.31489C10.5447 1.31489 1.85791 10.0001 1.85791 10.0001C1.85791 10.0001 10.5447 18.6853 10.5447 18.6853C10.8454 18.986 10.8454 19.4736 10.5448 19.7743C10.2441 20.0751 9.75656 20.0752 9.45574 19.7746C9.45574 19.7746 0.225966 10.5449 0.225966 10.5449C0.0813026 10.4006 0 10.2046 0 10.0003C0 9.79597 0.0813026 9.60004 0.225966 9.45574C0.225966 9.45574 9.45574 0.225966 9.45574 0.225966C9.60004 0.0813026 9.79597 0 10.0003 0C10.2046 0 10.4006 0.0813017 10.5449 0.225966C10.5449 0.225966 10.5447 0.225779 10.5447 0.225779Z"
    fill="#FFFFFF" fill-rule="evenodd" />
</svg>
