<?xml version="1.0" encoding="utf-8"?>
<svg fill="none" height="20" viewBox="0 0 20 20" width="20" xmlns="http://www.w3.org/2000/svg">
  <g>
    <g>
      <path
        d="M0 10C5.96046e-07 4.47715 4.47715 0 10 0C15.5228 0 20 4.47715 20 10C20 15.5228 15.5228 20 10 20C4.47715 20 0 15.5228 0 10C0 10 0 10 0 10ZM9.375 1.34625C8.5375 1.60125 7.70625 2.37125 7.01625 3.665C6.83708 4.00083 6.6725 4.36417 6.5225 4.755C7.40375 4.95125 8.3625 5.07625 9.375 5.11375C9.375 5.11375 9.375 1.34625 9.375 1.34625ZM5.31125 4.42375C5.48958 3.94292 5.69 3.49375 5.9125 3.07625C6.13006 2.66839 6.37959 2.27842 6.65876 1.90999C5.59443 2.3507 4.6276 2.99724 3.81375 3.8125C4.26708 4.04333 4.76625 4.2475 5.31125 4.425C5.31125 4.425 5.31125 4.42375 5.31125 4.42375ZM4.38625 9.375C4.43125 8.0375 4.62125 6.76625 4.93125 5.615C4.25431 5.39947 3.5993 5.12031 2.97501 4.78125C1.97919 6.11781 1.38825 7.71228 1.2725 9.375C1.2725 9.375 4.38625 9.375 4.38625 9.375ZM6.13625 5.94875C5.8411 7.06836 5.67337 8.21774 5.63625 9.375C5.63625 9.375 9.375 9.375 9.375 9.375C9.375 9.375 9.375 6.36375 9.375 6.36375C8.2375 6.32625 7.14625 6.1825 6.13625 5.94875C6.13625 5.94875 6.13625 5.94875 6.13625 5.94875ZM10.625 6.3625L10.625 9.375C10.625 9.375 14.3625 9.375 14.3625 9.375C14.3258 8.21776 14.1585 7.06839 13.8637 5.94872C12.8537 6.18247 11.7625 6.32497 10.625 6.36372C10.625 6.36372 10.625 6.3625 10.625 6.3625ZM5.6375 10.625C5.68125 11.8587 5.8575 13.0175 6.13625 14.0513C7.20006 13.8097 8.28464 13.6712 9.375 13.6375C9.375 13.6375 9.375 10.625 9.375 10.625C9.375 10.625 5.6375 10.625 5.6375 10.625ZM10.625 10.625C10.625 10.625 10.625 13.6363 10.625 13.6363C11.7625 13.6737 12.8538 13.8175 13.8637 14.0513C14.1425 13.0175 14.3187 11.8588 14.3637 10.625C14.3637 10.625 10.625 10.625 10.625 10.625ZM6.5225 15.245C6.6725 15.6358 6.83708 15.9992 7.01625 16.335C7.70625 17.6287 8.53875 18.3975 9.375 18.6538C9.375 18.6538 9.375 14.8875 9.375 14.8875C8.3625 14.925 7.40375 15.05 6.5225 15.2462C6.5225 15.2462 6.5225 15.245 6.5225 15.245ZM6.66 18.09C6.3804 17.7216 6.13045 17.3316 5.9125 16.9237C5.68276 16.4878 5.48191 16.0373 5.31125 15.575C4.79707 15.7404 4.29642 15.9451 3.81375 16.1875C4.6276 17.0028 5.59443 17.6493 6.65875 18.09C6.65875 18.09 6.66 18.09 6.66 18.09ZM4.93125 14.385C4.60715 13.1564 4.42388 11.895 4.385 10.625C4.385 10.625 1.2725 10.625 1.2725 10.625C1.38825 12.2877 1.97918 13.8822 2.975 15.2188C3.5625 14.8962 4.21875 14.6162 4.93125 14.385C4.93125 14.385 4.93125 14.385 4.93125 14.385ZM13.3413 18.09C14.405 17.6495 15.3714 17.0034 16.185 16.1888C15.7027 15.9464 15.2025 15.7417 14.6887 15.5762C14.518 16.0381 14.3172 16.4882 14.0875 16.9237C13.87 17.3316 13.6204 17.7215 13.3413 18.09C13.3413 18.09 13.3413 18.09 13.3413 18.09ZM10.625 14.8863C10.625 14.8863 10.625 18.6538 10.625 18.6538C11.4625 18.3988 12.2938 17.6288 12.9838 16.335C13.1638 15.9992 13.3283 15.6358 13.4775 15.245C12.5396 15.0391 11.5847 14.9195 10.625 14.8875C10.625 14.8875 10.625 14.8863 10.625 14.8863ZM15.0688 14.385C15.7812 14.6163 16.4375 14.8963 17.025 15.2188C18.0208 13.8822 18.6118 12.2877 18.7275 10.625C18.7275 10.625 15.615 10.625 15.615 10.625C15.5761 11.895 15.3929 13.1565 15.0687 14.385C15.0687 14.385 15.0688 14.385 15.0688 14.385ZM18.7275 9.375C18.6118 7.71228 18.0208 6.1178 17.025 4.78124C16.4375 5.10374 15.7812 5.38374 15.0687 5.61499C15.3787 6.76499 15.5687 8.03749 15.615 9.37499C15.615 9.37499 18.7275 9.375 18.7275 9.375ZM14.0875 3.07625C14.3092 3.49458 14.51 3.94375 14.69 4.42375C15.2033 4.25828 15.7031 4.05351 16.185 3.81125C15.3713 2.99703 14.4049 2.35136 13.3412 1.91125C13.6137 2.265 13.8637 2.6575 14.0875 3.07625C14.0875 3.07625 14.0875 3.07625 14.0875 3.07625ZM13.4775 4.755C13.3348 4.38214 13.1699 4.01815 12.9837 3.665C12.2937 2.37125 11.4625 1.6025 10.625 1.34625C10.625 1.34625 10.625 5.1125 10.625 5.1125C11.6375 5.075 12.5962 4.95 13.4775 4.75375C13.4775 4.75375 13.4775 4.755 13.4775 4.755Z"
        fill="#FFFFFF" />
    </g>
  </g>
</svg>
