<?xml version="1.0" encoding="utf-8"?>
<svg fill="none" height="20" viewBox="0 0 20 20" width="20" xmlns="http://www.w3.org/2000/svg">
  <g>
    <g>
      <path
        d="M10 18.75C5.16751 18.75 1.25 14.8325 1.25 10C1.25 5.16751 5.16751 1.25 10 1.25C14.8325 1.25 18.75 5.16751 18.75 10C18.75 14.8325 14.8325 18.75 10 18.75C10 18.75 10 18.75 10 18.75ZM10 20C15.5228 20 20 15.5228 20 10C20 4.47715 15.5228 0 10 0C4.47715 0 0 4.47715 0 10C5.96046e-07 15.5228 4.47715 20 10 20C10 20 10 20 10 20Z"
        fill="#FFFFFF" />
      <path
        d="M3.03744 3.86003L0.17494 4.21878L0.0724401 4.69378C0.0724401 4.69378 0.63494 4.79753 0.63494 4.79753C1.00244 4.88503 1.07494 5.01753 0.994941 5.38378C0.994941 5.38378 0.0724401 9.71878 0.0724401 9.71878C-0.17006 10.84 0.203691 11.3675 1.08244 11.3675C1.76369 11.3675 2.55494 11.0525 2.91369 10.62C2.91369 10.62 3.02369 10.1 3.02369 10.1C2.77369 10.32 2.40869 10.4075 2.16619 10.4075C1.82244 10.4075 1.69744 10.1663 1.78619 9.74128C1.78619 9.74128 3.03744 3.86003 3.03744 3.86003ZM3.125 1.25C3.125 1.94036 2.56536 2.5 1.875 2.5C1.18464 2.5 0.625 1.94036 0.625 1.25C0.625 0.559644 1.18464 0 1.875 0C2.56536 0 3.125 0.559644 3.125 1.25C3.125 1.25 3.125 1.25 3.125 1.25Z"
        fill="#FFFFFF" transform="translate(8.125 4.375)" />
    </g>
  </g>
</svg>
