<?xml version="1.0" encoding="utf-8"?>
<svg fill="none" height="20" viewBox="0 0 20 20" width="20" xmlns="http://www.w3.org/2000/svg">
  <g>
    <g>
      <path
        d="M19.7712 0.141034C19.9162 0.259839 20.0001 0.437396 20 0.624784C20 0.624784 20 18.1248 20 18.1248C19.9998 18.4226 19.7895 18.6789 19.4975 18.7373C19.4975 18.7373 13.2475 19.9873 13.2475 19.9873C13.1666 20.0034 13.0834 20.0034 13.0025 19.9873C13.0025 19.9873 6.875 18.7623 6.875 18.7623C6.875 18.7623 0.7475 19.9873 0.7475 19.9873C0.563964 20.024 0.373647 19.9765 0.228874 19.8578C0.0841016 19.7392 0.0001131 19.562 0 19.3748C0 19.3748 0 1.87478 0 1.87478C0.000178106 1.57698 0.210462 1.32066 0.502496 1.26228C0.502496 1.26228 6.7525 0.012285 6.7525 0.012285C6.83336 -0.0038784 6.91663 -0.0038784 6.9975 0.012285C6.9975 0.012285 13.125 1.23728 13.125 1.23728C13.125 1.23728 19.2525 0.0122842 19.2525 0.0122842C19.436 -0.0246303 19.6263 0.0226154 19.7713 0.141034C19.7713 0.141034 19.7712 0.141034 19.7712 0.141034ZM12.5 2.38727L7.5 1.38727L7.5 17.6123L12.5 18.6123L12.5 2.38727ZM13.75 18.6123L18.75 17.6123L18.75 1.38727L13.75 2.38727L13.75 18.6123ZM6.25 17.6123L6.25 1.38727L1.25 2.38727L1.25 18.6123L6.25 17.6123Z"
        fill="#FFFFFF" fill-rule="evenodd" transform="translate(0 0)" />
    </g>
  </g>
</svg>
