<?xml version="1.0" encoding="utf-8"?>
<svg fill="none" height="20" viewBox="0 0 20 20" width="20" xmlns="http://www.w3.org/2000/svg">
  <g>
    <g>
      <path
        d="M0.625 0C0.970178 0 1.25 0.279821 1.25 0.625C1.25 0.625 1.25 1.875 1.25 1.875C1.25 4.63642 3.48858 6.875 6.25 6.875C9.01142 6.875 11.25 4.63642 11.25 1.875C11.25 1.875 11.25 0.625 11.25 0.625C11.25 0.279821 11.5298 0 11.875 0C12.2202 0 12.5 0.279822 12.5 0.625C12.5 0.625 12.5 1.875 12.5 1.875C12.5 5.08486 10.0686 7.77282 6.87492 8.09376C6.87492 8.09376 6.87492 10.625 6.87492 10.625C6.87492 10.625 10.6249 10.625 10.6249 10.625C10.9701 10.625 11.2499 10.9048 11.2499 11.25C11.2499 11.5952 10.9701 11.875 10.6249 11.875C10.6249 11.875 1.87492 11.875 1.87492 11.875C1.52974 11.875 1.24992 11.5952 1.24992 11.25C1.24992 10.9048 1.52974 10.625 1.87492 10.625C1.87492 10.625 5.62492 10.625 5.62492 10.625C5.62492 10.625 5.62492 8.09375 5.62492 8.09375C2.43126 7.77273 -4.48227e-05 5.08476 0 1.875C0 1.875 0 0.625 0 0.625C0 0.279821 0.279822 0 0.625 0C0.625 0 0.625 0 0.625 0Z"
        fill="#FFFFFF" fill-rule="evenodd" transform="translate(3.75 8.125)" />
      <path
        d="M6.25 10C6.25 11.3807 5.13071 12.5 3.75 12.5C2.36929 12.5 1.25 11.3807 1.25 10C1.25 10 1.25 3.75 1.25 3.75C1.25 2.36929 2.36929 1.25 3.75 1.25C5.13071 1.25 6.25 2.36929 6.25 3.75C6.25 3.75 6.25 10 6.25 10ZM3.75 0C1.67893 0 0 1.67893 0 3.75C0 3.75 0 10 0 10C0 12.0711 1.67893 13.75 3.75 13.75C5.82107 13.75 7.5 12.0711 7.5 10C7.5 10 7.5 3.75 7.5 3.75C7.5 1.67893 5.82107 0 3.75 0C3.75 0 3.75 0 3.75 0Z"
        fill="#FFFFFF" transform="translate(6.25 0)" />
    </g>
  </g>
</svg>
