<?xml version="1.0" encoding="utf-8"?>
<svg fill="none" height="20" viewBox="0 0 20 20" width="20" xmlns="http://www.w3.org/2000/svg">
  <g>
    <path
      d="M18.75 15C18.75 15 20 15 20 13.75C20 12.5 18.75 8.75 13.75 8.75C8.74999 8.75 7.49999 12.5 7.49999 13.75C7.49999 15 8.74999 15 8.74999 15C8.74999 15 18.75 15 18.75 15ZM8.77749 13.75C8.77749 13.75 8.74999 13.745 8.74999 13.745C8.75124 13.415 8.95874 12.4575 9.69999 11.595C10.39 10.7862 11.6025 10 13.75 10C15.8962 10 17.1087 10.7875 17.8 11.595C18.5412 12.4575 18.7475 13.4163 18.75 13.745C18.75 13.745 18.74 13.7475 18.74 13.7475L18.7225 13.75L8.77749 13.75ZM13.75 6.25C15.1307 6.25 16.25 5.13071 16.25 3.75C16.25 2.36929 15.1307 1.25 13.75 1.25C12.3693 1.25 11.25 2.36929 11.25 3.75C11.25 5.13071 12.3693 6.25 13.75 6.25C13.75 6.25 13.75 6.25 13.75 6.25ZM17.5 3.75C17.5 5.82107 15.8211 7.5 13.75 7.5C11.6789 7.5 9.99999 5.82107 9.99999 3.75C9.99999 1.67893 11.6789 0 13.75 0C15.8211 0 17.5 1.67893 17.5 3.75C17.5 3.75 17.5 3.75 17.5 3.75ZM8.66999 9.1C8.16969 8.94364 7.65437 8.84016 7.13249 8.79125C6.83921 8.76265 6.54467 8.74888 6.25 8.75C1.25 8.75 0 12.5 0 13.75C0 14.5833 0.416667 15 1.25 15C1.25 15 6.52 15 6.52 15C6.33478 14.6097 6.24236 14.1819 6.24999 13.75C6.24999 12.4875 6.72124 11.1975 7.61249 10.12C7.91624 9.7525 8.26999 9.40875 8.66999 9.1C8.66999 9.1 8.66999 9.1 8.66999 9.1ZM6.14999 10C5.41064 11.1118 5.01104 12.4149 4.99999 13.75C4.99999 13.75 1.24999 13.75 1.24999 13.75C1.24999 13.425 1.45499 12.4625 2.19999 11.595C2.88124 10.8 4.06499 10.025 6.14999 10.0013C6.14999 10.0013 6.14999 10 6.14999 10ZM1.87499 4.375C1.87499 2.30393 3.55392 0.625 5.62499 0.625C7.69606 0.625 9.37499 2.30393 9.37499 4.375C9.37499 6.44607 7.69606 8.125 5.62499 8.125C3.55392 8.125 1.87499 6.44607 1.87499 4.375C1.87499 4.375 1.87499 4.375 1.87499 4.375ZM5.62499 1.875C4.24428 1.875 3.12499 2.99429 3.12499 4.375C3.12499 5.75571 4.24428 6.875 5.62499 6.875C7.0057 6.875 8.12499 5.75571 8.12499 4.375C8.12499 2.99429 7.0057 1.875 5.62499 1.875C5.62499 1.875 5.62499 1.875 5.62499 1.875Z"
      fill="#FFFFFF" transform="translate(0 2.5)" />
  </g>
</svg>
