<?xml version="1.0" encoding="utf-8"?>
<svg fill="none" height="20" viewBox="0 0 20 20" width="20" xmlns="http://www.w3.org/2000/svg">
  <g>
    <path
      d="M7.5 7.5C9.57107 7.5 11.25 5.82107 11.25 3.75C11.25 1.67893 9.57107 0 7.5 0C5.42893 0 3.75 1.67893 3.75 3.75C3.75 5.82107 5.42893 7.5 7.5 7.5C7.5 7.5 7.5 7.5 7.5 7.5ZM10 3.75C10 5.13071 8.88071 6.25 7.5 6.25C6.11929 6.25 5 5.13071 5 3.75C5 2.36929 6.11929 1.25 7.5 1.25C8.88071 1.25 10 2.36929 10 3.75C10 3.75 10 3.75 10 3.75ZM15 13.75C15 15 13.75 15 13.75 15C13.75 15 1.25 15 1.25 15C1.25 15 0 15 0 13.75C0 12.5 1.25 8.75 7.5 8.75C13.75 8.75 15 12.5 15 13.75C15 13.75 15 13.75 15 13.75ZM13.75 13.745C13.7487 13.4375 13.5575 12.5125 12.71 11.665C11.895 10.85 10.3612 10 7.5 10C4.63875 10 3.105 10.85 2.29 11.665C1.4425 12.5125 1.2525 13.4375 1.25 13.745C1.25 13.745 13.75 13.745 13.75 13.745Z"
      fill="#FFFFFF" transform="translate(2.5 2.5)" />
  </g>
</svg>
