<svg xmlns="http://www.w3.org/2000/svg" fill="none" viewBox="0 0 108.333 50">
  <path fill="#FFF" d="M4.27 34.056c-2.366 0-4.27 1.916-4.27 4.245a4.273 4.273 0 0 0 4.27 4.296c2.315 0 4.217-1.915 4.217-4.296 0-2.33-1.902-4.245-4.217-4.245Zm0-11.334c-2.366 0-4.27 1.914-4.27 4.244s1.904 4.243 4.27 4.243c2.315 0 4.217-1.915 4.217-4.243 0-2.329-1.902-4.244-4.217-4.244Zm0-11.336c-2.366 0-4.27 1.916-4.27 4.246 0 2.329 1.904 4.243 4.27 4.243 2.315 0 4.217-1.915 4.217-4.243 0-2.329-1.902-4.245-4.217-4.245ZM4.27 0C1.904 0 0 1.915 0 4.244A4.273 4.273 0 0 0 4.27 8.54c2.315 0 4.217-1.916 4.217-4.296C8.487 1.915 6.585 0 4.27 0Zm11.265 22.722c-2.315 0-4.217 1.915-4.217 4.244 0 2.328 1.904 4.243 4.218 4.243 2.365 0 4.27-1.915 4.27-4.243 0-2.329-1.905-4.244-4.27-4.244Zm0-11.336c-2.315 0-4.217 1.916-4.217 4.244s1.904 4.244 4.218 4.244c2.365 0 4.27-1.916 4.27-4.244s-1.905-4.244-4.27-4.244Zm0-11.386c-2.315 0-4.217 1.915-4.217 4.244 0 2.38 1.904 4.296 4.218 4.296a4.273 4.273 0 0 0 4.27-4.296C19.805 1.915 17.9 0 15.535 0Zm11.317 11.386c-2.366 0-4.27 1.916-4.27 4.244s1.904 4.244 4.27 4.244c2.316 0 4.218-1.916 4.218-4.244s-1.904-4.244-4.218-4.244ZM79.94 31.365h3.24V16.252h-3.548v10.87c-.36.466-.874.828-1.44 1.139-.566.31-1.183.466-1.904.466-.617 0-1.08-.207-1.39-.57-.256-.414-.411-1.139-.411-2.122v-9.782h-3.549v10.3c0 1.604.36 2.847 1.08 3.726.772.932 1.852 1.346 3.292 1.346 1.338 0 2.83-.62 4.63-1.916v1.656ZM68.106 27.12c0-1.242-.309-2.174-.977-2.847-.721-.725-1.492-1.242-2.469-1.604-.978-.414-1.852-.776-2.727-1.14-.874-.414-1.285-.879-1.285-1.398 0-.466.154-.828.514-1.087.309-.258.823-.414 1.492-.414.874 0 1.8.518 2.777 1.605l2.264-2.019c-.669-.725-1.44-1.293-2.366-1.657-.874-.414-1.852-.57-2.88-.57-.67 0-1.286.053-1.904.26-.566.206-1.08.466-1.543.879-.463.362-.823.828-1.132 1.398-.257.57-.36 1.19-.36 1.863 0 1.501.412 2.536 1.235 3.105.874.518 2.11 1.14 3.756 1.76 1.646.673 2.468 1.346 2.468 2.019 0 .517-.205.88-.566 1.243-.412.31-.926.466-1.543.466-1.285 0-2.468-.725-3.498-2.225l-2.366 1.812a6.373 6.373 0 0 0 2.418 2.277c.978.518 2.058.776 3.241.776 1.029 0 2.006-.155 2.83-.466.823-.31 1.492-.828 1.954-1.501.462-.724.667-1.551.667-2.535ZM96.81 10.093h3.549v3.364H96.81v-3.364Zm7.974.31h3.549v20.962h-3.549V10.403Zm-7.974 5.85h3.549v15.112H96.81V16.252Zm-9.362 11.903c0 2.33 1.235 3.468 3.653 3.468.566 0 1.492-.053 2.83-.207v-3.002c-.927.206-1.441.31-1.647.31-.464 0-.772-.052-.978-.206-.205-.155-.31-.414-.31-.828v-8.489h2.933v-2.95h-2.932v-5.021h-3.55v5.021h-2.056v2.95h2.058v8.954h-.001ZM54.63 22.1c0-1.501-.206-2.691-.515-3.57-.41-.881-1.029-1.554-1.852-1.916-.823-.414-1.954-.622-3.292-.622h-.36c-.566 0-1.234.105-1.851.311-.72.259-1.39.57-2.006.984a4.604 4.604 0 0 0-1.39 1.449l2.316 1.76c.411-.57.873-1.035 1.388-1.346.411-.311.977-.466 1.544-.466.154-.051.257-.051.36-.051.668 0 1.182.155 1.594.465.36.31.566.777.566 1.345v1.295a28.33 28.33 0 0 0-2.52.414c-1.647.362-2.984.88-3.91 1.553-1.44.931-2.11 2.225-2.11 3.934 0 .672.156 1.345.463 1.966.31.62.773 1.087 1.39 1.501.616.362 1.337.517 2.211.517a8.48 8.48 0 0 0 1.647-.155c.102-.05.205-.05.309-.103a4.657 4.657 0 0 0 1.182-.467c.463-.206.977-.517 1.492-.827l.206 1.294h3.446c-.205-.57-.308-1.294-.308-2.226V22.1Zm-3.498 5.28c-.464.414-1.028.776-1.646 1.086-.258.155-.567.31-.874.363a2.015 2.015 0 0 1-.721.155c-.566 0-.978-.155-1.286-.518-.309-.31-.463-.724-.463-1.242 0-.672.257-1.19.72-1.604.463-.414.977-.622 1.646-.828.052 0 .104-.053.104-.053.668-.155 1.492-.362 2.52-.57v3.21Zm-.618 18.633h1.235v3.934h.514v-3.934h1.287v-.415h-3.036v.415Zm3.19.776h.463v3.156h-.464v-3.157Zm-.206-4.45a.868.868 0 0 1-.514.155.583.583 0 0 1-.412-.155.806.806 0 0 1-.309-.415 2.615 2.615 0 0 1-.102-.673c0-.258.051-.517.102-.672a.762.762 0 0 1 .31-.467.583.583 0 0 1 .41-.155c.155 0 .258.052.36.103.103.05.155.103.206.206.102.104.154.207.205.311l.36-.103c-.103-.31-.258-.517-.412-.62-.155-.156-.412-.26-.72-.26-.258 0-.465.104-.67.207-.154.156-.309.311-.411.57a2.248 2.248 0 0 0-.155.88c0 .31.052.62.155.828.102.258.257.466.411.57.206.155.412.206.67.206.204 0 .41 0 .513-.104a.83.83 0 0 0 .36-.206c.103-.103.205-.259.31-.467l-.31-.155c-.1.208-.255.363-.357.415Zm.205 3.208h.464v.518h-.464v-.518Zm6.482 1.397-.309-.156c-.102-.052-.205-.052-.309-.052a.869.869 0 0 0-.514.156.801.801 0 0 0-.412.31v-.413h-.463v3.156h.463v-2.38c.103-.104.258-.207.412-.311a.821.821 0 0 1 .464-.156c.309 0 .514.207.514.57v2.277h.412v-2.277a.991.991 0 0 0-.103-.414c0-.154-.104-.258-.155-.31ZM56.79 49.48a.869.869 0 0 1-.514.156c-.052 0-.052 0-.103-.053-.155 0-.257-.052-.36-.103a.805.805 0 0 1-.309-.414 1.235 1.235 0 0 1-.154-.62h2.006v-.26c0-.517-.103-.879-.31-1.087-.204-.258-.513-.361-.873-.361-.205 0-.36.052-.514.103a2.156 2.156 0 0 0-.36.31 2.462 2.462 0 0 0-.257.518 3.019 3.019 0 0 0-.103.673c0 .362.052.673.206.931.102.26.257.415.463.57.155.052.36.103.566.156h.103c.205 0 .411-.053.566-.104.154-.05.257-.155.36-.258.102-.104.205-.207.257-.362l-.31-.207a.966.966 0 0 1-.36.412Zm-1.183-2.122c.154-.155.309-.259.566-.259h.052c.102 0 .205.053.309.104.102 0 .154.103.205.155.103.103.103.207.155.311.052.156.052.259.052.414h-1.543c-.002-.31.101-.517.204-.725Zm2.623-4.554h.463c-.052-.207-.052-.415-.052-.673v-1.605a.882.882 0 0 0-.154-.517.801.801 0 0 0-.412-.311 1.506 1.506 0 0 0-.514-.103h-.103c-.205.052-.411.103-.616.206-.206.103-.31.259-.464.467l.412.206c.052-.155.102-.259.257-.362a.957.957 0 0 1 .411-.103c.052-.052.052-.052.103-.052.103 0 .257.052.309.103.103 0 .205.103.257.155.052.103.052.207.052.362v.156c-.257.052-.514.103-.72.155-.053 0-.103.053-.155.053a1.924 1.924 0 0 0-.566.258c-.155.103-.257.207-.31.362-.102.103-.102.259-.102.467 0 .258.052.466.257.62.155.156.36.206.617.206h.257c.31-.103.514-.258.771-.466v.416h.002Zm-.05-.829c-.103.156-.258.259-.465.362a.39.39 0 0 1-.257.103c-.051.053-.154.053-.205.053a.465.465 0 0 1-.36-.156c-.102-.103-.154-.206-.154-.31a.59.59 0 0 1 .155-.415 1.8 1.8 0 0 1 .463-.31h.103c.205-.104.463-.156.72-.207v.88Zm-7.048.105c.103-.259.154-.518.154-.829 0-.31-.051-.62-.154-.828-.103-.259-.205-.466-.412-.62-.205-.104-.411-.207-.72-.207-.257 0-.464.103-.67.207-.204.155-.308.361-.41.62-.103.206-.155.517-.155.828 0 .207 0 .415.052.621.052.206.154.362.257.517.102.156.257.26.412.362.154.053.36.104.514.104.309 0 .514-.053.72-.207.206-.155.308-.362.412-.568Zm-.669.258c-.102.104-.257.156-.463.156-.257 0-.412-.103-.566-.311a1.794 1.794 0 0 1-.258-.932c0-.414.103-.725.258-.931.154-.207.309-.362.566-.362.205 0 .36.052.463.155.155.104.205.26.31.415.051.206.102.414.102.725 0 .258-.052.466-.103.673-.103.205-.154.308-.309.412Zm4.578-3.934h.411v.518h-.411v-.517Zm7.562 1.294h.412v3.106h-.412v-3.106Zm3.292-1.243h-.617l-.154.208-.412.62h.412l.771-.828Zm16.358 1.813.36.206c.051-.155.154-.259.256-.362a1.02 1.02 0 0 1 .464-.103c0-.052.052-.052.052-.052.154 0 .257.052.36.103.102 0 .154.103.205.155a.744.744 0 0 1 .102.362v.156a8.287 8.287 0 0 0-.72.155.224.224 0 0 0-.155.053 1.713 1.713 0 0 0-.617.258c-.102.103-.257.207-.309.362a1.031 1.031 0 0 0-.102.467c0 .258.102.466.257.62.154.156.36.206.616.206h.31c.257-.103.514-.258.72-.466l.052.414h.412c-.052-.206-.052-.414-.052-.673v-1.604a.882.882 0 0 0-.155-.517c-.102-.156-.205-.26-.411-.311a1.506 1.506 0 0 0-.514-.104h-.052c-.257.053-.464.104-.617.207a1.037 1.037 0 0 0-.463.468Zm1.8 1.707a2.721 2.721 0 0 1-.463.362c-.103.052-.205.103-.257.103-.103.053-.155.053-.257.053-.103 0-.205-.053-.36-.156-.102-.103-.154-.206-.154-.31a.59.59 0 0 1 .154-.415c.155-.103.31-.206.514-.31h.103c.154-.104.412-.156.72-.207v.88Zm-21.45-3.57h.412v.517h-.412v-.517ZM47.686 49.48a.869.869 0 0 1-.514.156c-.052 0-.103 0-.103-.053-.155 0-.257-.052-.36-.103a.805.805 0 0 1-.309-.414 1.236 1.236 0 0 1-.154-.62h2.006v-.26c0-.517-.103-.879-.31-1.087a1.124 1.124 0 0 0-.873-.361c-.205 0-.36.052-.514.103a2.155 2.155 0 0 0-.36.31c-.154.156-.205.363-.257.518-.103.207-.103.467-.103.673 0 .362.052.673.155.931.154.26.309.415.514.57.155.052.36.103.566.156h.103c.205 0 .411-.053.566-.104.155-.05.257-.155.36-.258.102-.104.154-.207.257-.362l-.31-.207c-.103.206-.258.309-.36.412Zm-1.184-2.122c.154-.155.308-.259.566-.259h.052c.102 0 .205.053.309.104.051 0 .154.103.205.155l.154.311c0 .156.052.259.052.414h-1.594c.05-.31.102-.517.255-.725Zm.875-6.365c-.103-.053-.206-.104-.31-.104-.154-.052-.257-.103-.308-.155a.35.35 0 0 1-.206-.31c0-.104.052-.207.155-.312a.732.732 0 0 1 .36-.103c0-.052.052-.052.052-.052a.83.83 0 0 1 .463.155c.103.052.205.156.36.311l.257-.259c-.103-.155-.205-.31-.412-.414a1.365 1.365 0 0 0-.616-.155h-.103c-.103.052-.205.052-.31.052-.102.052-.256.103-.308.206-.103.053-.155.156-.205.26a.742.742 0 0 0-.103.361c0 .207.103.414.257.57.155.103.36.206.669.31.309.104.514.156.669.26.154.052.205.206.205.361a.47.47 0 0 1-.155.362.868.868 0 0 1-.514.156c-.052 0-.154 0-.205-.053a1.004 1.004 0 0 1-.669-.414l-.36.259c.155.155.36.31.567.414.154.052.309.103.463.156h.205c.206 0 .412-.053.567-.104.154-.052.257-.155.36-.31a.882.882 0 0 0 .154-.518c0-.259-.052-.414-.205-.57-.208-.154-.415-.257-.774-.36Zm-3.292-2.538h-.31l-1.337 4.349h.515l.36-1.346h1.542l.412 1.346h.514l-1.338-4.349h-.358Zm0 2.589h-.617l.617-2.278h.052l.617 2.278h-.67Zm.976 4.554h-.411V47.1h-.052a1.072 1.072 0 0 0-.514-.311c-.103-.053-.155-.053-.258-.053-.205 0-.411.053-.616.156-.155.103-.31.31-.464.517-.102.259-.154.57-.154.932 0 .31 0 .57.102.776.052.206.155.414.31.517.102.103.256.207.359.259.154.052.309.103.464.103.102 0 .205 0 .257-.052.102 0 .154-.052.205-.052.154-.104.257-.156.36-.26l.051.312h.412c-.052-.156-.052-.414-.052-.725v-3.62h.001Zm-.411 3.623a1.71 1.71 0 0 1-.412.311c-.052 0-.102.053-.154.053-.052 0-.155.052-.206.052-.309 0-.514-.104-.668-.362-.155-.207-.205-.518-.205-.88 0-.31.051-.57.102-.725.052-.206.155-.361.31-.414.154-.103.256-.155.463-.155.052 0 .154 0 .205.052.052 0 .102.052.154.052.155.104.258.207.412.362v1.654h-.001Zm10.39-9.523h.412v3.106h-.411v-3.106Zm6.688 2.382-.36-.156c-.102.207-.257.362-.36.415-.102.103-.309.155-.463.155-.205 0-.36-.052-.464-.155-.154-.104-.205-.26-.309-.415a2.615 2.615 0 0 1-.102-.673c0-.258.052-.517.102-.672.103-.207.155-.362.31-.467.102-.103.257-.155.463-.155.103 0 .205.052.31.103.103.05.154.103.256.206l.155.311.36-.103c-.103-.31-.206-.517-.412-.62a.974.974 0 0 0-.669-.26 1.29 1.29 0 0 0-.669.207c-.205.156-.36.311-.463.57a2.222 2.222 0 0 0-.155.88c0 .31.052.62.155.828.102.258.257.466.463.57.155.155.412.206.669.206.154 0 .36 0 .464-.104a.83.83 0 0 0 .36-.206c.102-.103.204-.259.359-.465Zm19.239.413.052.31h.411c-.052-.155-.052-.361-.052-.672v-3.676h-.411v1.502h-.052c-.257-.207-.514-.362-.771-.362a.99.99 0 0 0-.617.206 1.547 1.547 0 0 0-.464.517c-.102.207-.154.518-.154.932 0 .259 0 .517.102.725.052.207.155.414.31.518.102.155.257.206.36.258.154.104.308.104.463.104.154 0 .36-.053.463-.104.155-.05.257-.154.36-.258Zm-.771 0h-.052a.728.728 0 0 1-.617-.311c-.155-.207-.205-.518-.205-.932 0-.31.052-.57.102-.725.052-.206.155-.311.31-.414.102-.103.256-.103.41-.156h.053a.56.56 0 0 1 .36.156c.154.052.257.155.411.31v1.657a1.71 1.71 0 0 1-.411.311.943.943 0 0 1-.361.104Zm-16.873 4.606h-.052c-.258-.258-.515-.361-.772-.361h-.052c-.154 0-.36.052-.566.155-.154.103-.309.311-.463.517-.103.26-.206.57-.206.932 0 .311.052.57.155.776.052.207.155.414.309.517.103.104.257.207.36.26.154.051.309.102.463.102.155 0 .36-.052.464-.103.154-.103.257-.155.36-.258l.051.31h.36v-4.348h-.411V47.1Zm0 2.122a1.71 1.71 0 0 1-.412.311.937.937 0 0 1-.36.104H62.5c-.257-.053-.463-.156-.617-.362-.154-.207-.205-.518-.205-.88 0-.31 0-.57.103-.725.052-.206.154-.362.309-.414a.583.583 0 0 1 .412-.156h.052c.102 0 .257.053.36.104.154.103.256.206.41.362v1.656ZM95.37 38.405h.412v.517h-.412v-.517Zm2.984 3.934c-.102.103-.257.155-.463.155-.206 0-.36-.052-.464-.155-.103-.104-.205-.26-.309-.415-.052-.206-.052-.414-.052-.673 0-.258 0-.517.052-.672.103-.207.205-.362.309-.467.103-.103.257-.155.464-.155.102 0 .205.052.309.103.103.05.205.103.257.206l.154.311.412-.103c-.103-.31-.257-.517-.412-.62-.205-.156-.411-.26-.72-.26-.258 0-.464.104-.67.207-.204.156-.359.311-.463.57a2.224 2.224 0 0 0-.154.88c0 .31.052.62.154.828.103.258.257.466.464.57.205.155.412.206.669.206.205 0 .36 0 .514-.104.102-.052.257-.103.36-.206.102-.103.205-.259.308-.467l-.36-.155c-.102.208-.204.363-.359.415Zm-20.73.05h.051v.415h.412v-3.106h-.412v2.33c-.154.103-.257.206-.463.31a.83.83 0 0 1-.464.156.465.465 0 0 1-.36-.156c-.052-.052-.102-.206-.102-.414V39.7h-.464v2.225c0 .362.103.57.257.725.205.156.412.207.669.207.103 0 .205 0 .31-.052.102-.053.204-.104.308-.156.103-.103.207-.155.257-.259Zm17.746-2.691h.412v3.106h-.412v-3.106Zm-6.892-.103c-.155 0-.257.052-.36.103-.103 0-.205.052-.36.155a.63.63 0 0 0-.257.26c-.052-.156-.154-.26-.309-.363a.869.869 0 0 0-.514-.155.83.83 0 0 0-.464.155c-.154.053-.257.156-.411.311V39.7h-.464v3.106h.464v-2.33c.154-.155.309-.31.411-.362a.583.583 0 0 1 .412-.155c.154 0 .257.052.36.155.102.104.154.26.154.467v2.225h.412v-2.33c.154-.155.309-.31.411-.362.155-.103.258-.155.464-.155.102 0 .257.052.309.155.103.104.154.26.154.467v2.225h.412V40.58c0-.362-.052-.62-.205-.776-.208-.106-.414-.21-.62-.21Zm5.4.31c-.102.104-.205.207-.257.363v-.57h-.463v3.106h.463v-1.76c.052-.207.155-.362.205-.518.103-.155.205-.258.36-.362a.956.956 0 0 1 .412-.103v-.414c-.155 0-.31 0-.412.052-.101.051-.205.102-.308.207Zm-28.754 2.95c.257 0 .514-.051.668-.206.206-.155.36-.361.464-.57.052-.258.103-.517.103-.828 0-.31-.052-.62-.103-.828a1.398 1.398 0 0 0-.464-.62 1.284 1.284 0 0 0-.668-.207c-.257 0-.515.103-.721.207a1.855 1.855 0 0 0-.412.62c-.102.206-.154.517-.154.828 0 .207.052.415.102.621.051.206.103.362.205.517.155.156.258.26.412.362.156.053.361.105.568.105Zm-.824-1.604c0-.414.052-.725.206-.931.154-.207.36-.362.616-.362.155 0 .31.052.412.155a.805.805 0 0 1 .309.415c.052.206.103.414.103.725 0 .258-.052.466-.103.673-.052.206-.154.31-.31.414a.582.582 0 0 1-.41.155.728.728 0 0 1-.618-.31c-.153-.26-.205-.572-.205-.934Zm2.52 6.418a.882.882 0 0 0-.154-.517.8.8 0 0 0-.411-.311 1.504 1.504 0 0 0-.515-.104c-.257 0-.463.053-.616.156-.052 0-.052 0-.052.052-.206.103-.36.259-.464.467l.36.206c.052-.103.102-.155.154-.259l.103-.103a.868.868 0 0 1 .514-.155c.155 0 .257.052.36.052a.401.401 0 0 1 .205.206c.052.104.102.207.102.311v.207c-.36.052-.668.103-.925.206-.103.053-.257.104-.36.156a.388.388 0 0 0-.205.103c-.103.103-.257.206-.31.31-.051.156-.102.312-.102.467 0 .311.103.518.257.673.103.052.206.156.36.156.052.052.154.052.257.052.412 0 .72-.156 1.028-.517l.052.466h.412c-.052-.206-.052-.414-.052-.673V47.67h.003Zm-.41 1.45a2.805 2.805 0 0 1-.464.361c-.206.103-.36.156-.515.156-.102 0-.205-.053-.309-.156h-.052a.47.47 0 0 1-.154-.362c0-.103.052-.259.154-.362.052 0 .052 0 .052-.052.103-.103.257-.156.464-.259.205-.052.463-.155.823-.206v.88Zm1.132-8.645c.102-.155.257-.259.411-.362a.831.831 0 0 1 .464-.155c.36 0 .514.206.514.57v2.277h.41v-2.278c0-.155 0-.31-.052-.414a.664.664 0 0 0-.205-.31c-.052-.053-.154-.104-.257-.156-.102 0-.257-.053-.36-.053a.83.83 0 0 0-.463.156c-.155.052-.31.206-.464.362v-.414h-.411v3.105h.411v-2.328h.001Zm24.33 1.865a.869.869 0 0 1-.514.155h-.103c-.102-.052-.257-.103-.36-.155-.102-.104-.205-.26-.309-.415-.102-.155-.102-.362-.102-.62h2.006v-.259c0-.467-.154-.828-.36-1.087a1.211 1.211 0 0 0-.823-.362h-.052c-.154 0-.309.052-.463.103-.155.104-.31.207-.412.362-.103.103-.205.311-.257.517a2.61 2.61 0 0 0-.103.673c0 .362.103.673.206.88.102.258.308.466.463.57.205.103.36.155.566.155h.103c.257 0 .411-.052.566-.103.154-.053.257-.156.36-.26.102-.102.205-.206.257-.361l-.31-.155a1.223 1.223 0 0 1-.359.362Zm-1.131-2.124c.103-.155.309-.206.514-.258h.052c.103 0 .205.052.31.103.103.05.154.103.256.206.052.053.103.156.103.311.052.104.052.207.052.362h-1.543c-.001-.31.101-.516.256-.724Zm17.438.311a.88.88 0 0 0-.155-.517.8.8 0 0 0-.411-.311 1.51 1.51 0 0 0-.515-.103h-.102c-.205.052-.412.103-.617.206a1.976 1.976 0 0 0-.464.467l.412.206c.052-.155.103-.259.257-.362a.958.958 0 0 1 .412-.103c.052-.052.052-.052.102-.052.155 0 .258.052.309.103.103 0 .206.103.258.155.052.103.052.207.052.362v.156c-.258.052-.515.103-.721.155-.052 0-.103.053-.155.053a1.93 1.93 0 0 0-.566.258c-.154.103-.257.207-.309.362-.102.103-.102.259-.102.467 0 .258.051.466.257.62.154.156.359.206.616.206h.258c.309-.103.514-.258.771-.466l.052.414h.411c-.051-.206-.051-.414-.051-.673v-1.603h.001Zm-.462 1.45c-.103.155-.258.258-.412.361-.103.052-.205.103-.309.103-.052.053-.155.053-.205.053a.556.556 0 0 1-.36-.156c-.103-.103-.155-.206-.155-.31a.59.59 0 0 1 .155-.415c.103-.103.257-.206.514-.31h.052c.205-.104.464-.156.721-.207v.88h-.001ZM73.713 40.32c-.463-.156-.72-.259-.925-.362a.544.544 0 0 1-.258-.466c.052-.207.103-.415.257-.518.103-.103.31-.155.567-.155.257 0 .514.052.668.206.155.156.257.311.31.517l.463-.103c-.103-.206-.205-.414-.309-.57a1.846 1.846 0 0 0-.514-.361 1.892 1.892 0 0 0-.617-.104c-.154 0-.36 0-.514.104-.155.052-.31.103-.412.206-.102.103-.205.206-.257.362-.052.155-.102.259-.102.466 0 .26.102.518.309.673.205.156.514.311.925.467.412.155.721.31.926.414.155.155.257.31.257.57a.99.99 0 0 1-.102.414.532.532 0 0 1-.31.259c-.154.103-.308.103-.514.103-.309 0-.514-.053-.72-.259a1.855 1.855 0 0 1-.412-.62l-.412.155c.103.362.31.62.515.828.257.207.566.311.978.311a2.3 2.3 0 0 0 .668-.103 1.01 1.01 0 0 0 .464-.259c.102-.155.205-.258.257-.414.052-.155.052-.31.052-.517 0-.311-.103-.518-.31-.725-.207-.157-.516-.313-.928-.52Zm28.19.206a.88.88 0 0 0-.155-.517c-.102-.156-.205-.259-.411-.311a1.508 1.508 0 0 0-.514-.103h-.052c-.257.052-.464.103-.617.206a1.02 1.02 0 0 0-.464.467l.36.206c.052-.155.155-.259.257-.362.155-.052.257-.103.464-.103 0-.052.052-.052.052-.052.154 0 .257.052.359.103.103 0 .155.103.206.155a.753.753 0 0 1 .102.362v.156a8.35 8.35 0 0 0-.721.155c-.052 0-.102.053-.154.053a1.711 1.711 0 0 0-.617.258 2.286 2.286 0 0 0-.309.362 1.033 1.033 0 0 0-.102.467c0 .258.102.466.257.62.154.156.359.206.616.206h.309a2.14 2.14 0 0 0 .721-.466l.052.414h.412c-.052-.206-.052-.414-.052-.673v-1.603h.001Zm-.412 1.45c-.154.155-.309.258-.463.361-.103.052-.205.103-.257.103-.103.053-.155.053-.257.053-.103 0-.205-.053-.309-.156-.155-.103-.206-.206-.206-.31 0-.156.052-.312.206-.415a1.8 1.8 0 0 1 .463-.31h.103c.154-.104.411-.156.72-.207v.88Zm3.293-2.175c-.051-.052-.154-.103-.257-.155-.102 0-.205-.053-.359-.053a.832.832 0 0 0-.464.156c-.154.052-.309.206-.412.362h-.051v-.414h-.412v3.105h.412v-2.33c.154-.155.257-.258.463-.361a.832.832 0 0 1 .464-.156c.309 0 .463.207.463.57v2.277h.464v-2.277a.985.985 0 0 0-.103-.414c-.054-.154-.105-.205-.208-.31Zm-23.765 7.246c-.103.103-.205.207-.257.362h-.052v-.62h-.412v3.156h.412v-1.76c.102-.206.154-.414.257-.57.103-.103.205-.258.309-.31.154-.104.309-.104.464-.104v-.466a.974.974 0 0 0-.412.103c-.155.055-.258.106-.31.21Zm-5.453-.258h.412v3.156h-.412v-3.157Zm-2.779-1.19h-.514v4.348h2.52v-.415h-2.006v-3.934Zm14.25 2.899c-.154-.156-.411-.26-.72-.362a6.085 6.085 0 0 1-.669-.26c-.102-.051-.154-.155-.154-.31 0-.156.052-.259.154-.311.103-.103.205-.156.412-.156a.97.97 0 0 1 .411.104c.103.103.257.206.36.362l.31-.26a1.208 1.208 0 0 0-.465-.413 1.365 1.365 0 0 0-.616-.156c-.155 0-.257 0-.412.053l-.309.155c-.052.103-.154.155-.205.259-.052.103-.052.258-.052.362 0 .258.052.466.205.57.155.155.412.258.72.361.258.052.515.156.618.207.154.103.205.206.205.414a.562.562 0 0 1-.155.362c-.102.103-.257.155-.463.155-.412 0-.67-.155-.926-.517l-.31.259c.103.206.31.361.515.466.205.103.463.155.72.155.155 0 .36-.052.515-.103a.794.794 0 0 0 .412-.31.882.882 0 0 0 .154-.518c.003-.259-.101-.465-.255-.569Zm-17.593 0c-.155-.156-.412-.26-.72-.362a3.532 3.532 0 0 1-.67-.26c-.102-.051-.154-.155-.154-.31 0-.156.052-.259.102-.311a.583.583 0 0 1 .412-.156c.205 0 .31.053.464.104l.36.362.308-.26a1.208 1.208 0 0 0-.463-.413 1.365 1.365 0 0 0-.617-.156c-.154 0-.257 0-.412.053l-.309.155a.895.895 0 0 0-.307.62c0 .26.102.467.257.57.154.156.36.259.668.362.31.052.515.156.67.207.154.103.204.206.204.414a.562.562 0 0 1-.154.362c-.103.103-.31.155-.514.155a.951.951 0 0 1-.874-.517l-.36.259c.155.206.36.361.566.466.205.103.464.155.669.155.205 0 .412-.052.566-.103.155-.052.31-.155.36-.31a.882.882 0 0 0 .154-.518c0-.259-.052-.465-.206-.569Zm14.507.982a.869.869 0 0 1-.514.156c-.052 0-.052 0-.103-.053-.154 0-.257-.052-.36-.103a.805.805 0 0 1-.309-.414 1.235 1.235 0 0 1-.154-.62h2.006v-.26c0-.517-.102-.879-.309-1.087-.205-.258-.514-.361-.874-.361-.205 0-.36.052-.514.103a2.156 2.156 0 0 0-.36.31 2.467 2.467 0 0 0-.257.518 3.018 3.018 0 0 0-.102.673c0 .362.052.673.205.931.102.26.257.415.463.57.155.052.36.103.566.156h.103c.205 0 .412-.053.566-.104.155-.052.257-.155.36-.258.102-.104.154-.207.257-.362l-.31-.207a.965.965 0 0 1-.36.412Zm-1.183-2.122c.154-.155.309-.259.566-.259h.052c.103 0 .205.053.31.104.102 0 .154.103.204.155.103.103.103.207.155.311.052.156.052.259.052.414h-1.543c-.002-.31.1-.517.204-.725Zm-3.55-.258c-.155-.104-.257-.207-.412-.26-.154-.051-.309-.102-.411-.102h-.052c-.206 0-.515.103-.772.361h-.052v-1.5h-.411v4.348h.257l.102-.362c.155.155.258.258.412.31.155.053.31.104.464.104.36 0 .616-.156.873-.414.258-.26.412-.673.412-1.243a3.16 3.16 0 0 0-.102-.725c-.102-.206-.206-.362-.308-.517Zm-.257 2.173c-.155.207-.36.311-.617.362-.155 0-.257-.052-.412-.103-.102-.052-.257-.206-.411-.31v-1.657a2.47 2.47 0 0 1 .411-.362c.155-.053.257-.104.412-.104.155 0 .309.053.412.156.154.052.257.206.309.414.102.156.102.414.102.725 0 .413-.052.672-.206.88Zm-3.395-3.726h.412v.518h-.412v-.518Z"/>
</svg>
