<svg xmlns="http://www.w3.org/2000/svg" viewBox="0 0 1167.937 345.297">
  <defs>
    <clipPath id="a" clipPathUnits="userSpaceOnUse">
      <path d="M-1086.854 445.812h1920v-1080h-1920Z"/>
    </clipPath>
    <clipPath id="b" clipPathUnits="userSpaceOnUse">
      <path d="M-1173.202 449.831h1920v-1080h-1920Z"/>
    </clipPath>
    <clipPath id="c" clipPathUnits="userSpaceOnUse">
      <path d="M-1179.644 445.57h1920v-1080h-1920Z"/>
    </clipPath>
    <clipPath id="d" clipPathUnits="userSpaceOnUse">
      <path d="M-1279.257 410.602h1920v-1080h-1920Z"/>
    </clipPath>
    <clipPath id="e" clipPathUnits="userSpaceOnUse">
      <path d="M-1287.306 464.703h1920v-1080h-1920Z"/>
    </clipPath>
    <clipPath id="f" clipPathUnits="userSpaceOnUse">
      <path d="M-1312.799 464.623h1920v-1080h-1920Z"/>
    </clipPath>
    <clipPath id="i" clipPathUnits="userSpaceOnUse">
      <path d="M-596.1 501.522h1920v-1080h-1920Z"/>
    </clipPath>
    <clipPath id="j" clipPathUnits="userSpaceOnUse">
      <path d="M-714.286 563.457h1920v-1080h-1920Z"/>
    </clipPath>
    <clipPath id="k" clipPathUnits="userSpaceOnUse">
      <path d="M-766.955 628.44h1920v-1080h-1920Z"/>
    </clipPath>
    <clipPath id="l" clipPathUnits="userSpaceOnUse">
      <path d="M-1175.605 627.903h1920v-1080h-1920Z"/>
    </clipPath>
    <clipPath id="m" clipPathUnits="userSpaceOnUse">
      <path d="M-1255.575 566.343h1920v-1080h-1920Z"/>
    </clipPath>
    <linearGradient id="g" x1="0" x2="1" y1="0" y2="0" gradientTransform="scale(175.11545 -175.11545) rotate(-9.866 -15.747 -29.054)" gradientUnits="userSpaceOnUse" spreadMethod="pad">
      <stop offset="0" stop-color="#f9005a"/>
      <stop offset=".219" stop-color="#f9005a"/>
      <stop offset="1" stop-color="#890b8b"/>
    </linearGradient>
    <linearGradient id="h" x1="0" x2="1" y1="0" y2="0" gradientTransform="matrix(173.36304 0 0 -173.36304 874.637 456.534)" gradientUnits="userSpaceOnUse" spreadMethod="pad">
      <stop offset="0" stop-color="#f9005a"/>
      <stop offset=".219" stop-color="#f9005a"/>
      <stop offset="1" stop-color="#890b8b"/>
    </linearGradient>
  </defs>
  <path fill="#fff" d="M0 0c1.5.107 3.056.294 4.662.562 1.394.214 2.854.523 4.383.925 1.527.402 2.986.978 4.381 1.728L7.235 20.901Zm-20.419-20.579c-.321.428-.481.83-.481 1.206 0 .374.025.615.079.723l18.65 51.288c.59 1.554 1.661 2.331 3.217 2.331h12.459c1.554 0 2.625-.777 3.216-2.331l18.65-51.288c.053-.108.08-.349.08-.723 0-.43-.175-.818-.523-1.166-.348-.349-.737-.523-1.165-.523h-10.37c-1.341 0-2.251.589-2.733 1.769L16.48-7.959a46.525 46.525 0 0 0-5.869-1.848 53.863 53.863 0 0 0-5.747-1.086 65.48 65.48 0 0 0-5.185-.482 85.856 85.856 0 0 0-4.181-.121h-1.889c-.51 0-.898.027-1.165.081.965-.161 1.754-.697 2.371-1.608.615-.912.683-1.983.202-3.215l-1.127-3.055c-.481-1.18-1.393-1.769-2.733-1.769h-10.37c-.375 0-.777.161-1.206.483" clip-path="url(#a)" transform="matrix(1.33333 0 0 -1.33333 769.081 47.803)"/>
  <path fill="#fff" d="M0 0c0-3.269-.763-6.029-2.291-8.28a18.084 18.084 0 0 0-5.827-5.467c-2.36-1.394-4.985-2.398-7.879-3.014-2.893-.615-5.707-.924-8.441-.924-2.626 0-5.345.268-8.159.803-2.814.536-5.4 1.434-7.758 2.694-2.358 1.258-4.328 2.92-5.908 4.984-1.582 2.062-2.452 4.622-2.612 7.677 0 .482.173.884.521 1.205.348.322.764.483 1.247.483h10.691c.321 0 .603-.027.844-.081a2.96 2.96 0 0 0 .683-.241c.375-.215.832-.59 1.367-1.125.857-1.716 2.131-2.882 3.819-3.497a15.24 15.24 0 0 1 5.265-.925c.804 0 1.729.054 2.773.161 1.046.107 2.01.334 2.894.684a6.337 6.337 0 0 1 2.291 1.527c.644.67.965 1.54.965 2.613 0 1.447-.536 2.492-1.607 3.135a16.07 16.07 0 0 1-3.376 1.527c-.912.322-1.998.629-3.256.925-1.26.293-2.721.602-4.381.924a56.011 56.011 0 0 0-7.156 1.889c-2.304.777-4.354 1.809-6.149 3.095a14.814 14.814 0 0 0-4.341 4.864c-1.098 1.955-1.648 4.353-1.648 7.194 0 3.537.977 6.579 2.935 9.124 1.954 2.545 4.514 4.489 7.676 5.829 3.43 1.393 7.369 2.089 11.818 2.089 1.768 0 3.604-.147 5.506-.441a28.347 28.347 0 0 0 5.547-1.447 22.154 22.154 0 0 0 5.025-2.653 17.171 17.171 0 0 0 4.018-3.98c1.821-2.358 2.814-4.742 2.975-7.154 0-.429-.175-.831-.523-1.205-.349-.376-.737-.564-1.165-.564h-11.255c-1.125 0-2.01.483-2.652 1.448-.322 1.125-1.153 2.089-2.493 2.893-1.446.75-3.108 1.126-4.983 1.126-.804 0-1.622-.054-2.452-.161a6.584 6.584 0 0 1-2.291-.723 4.78 4.78 0 0 1-1.688-1.487c-.43-.617-.643-1.407-.643-2.372 0-1.501.804-2.707 2.412-3.617 1.606-.858 4.608-1.743 9.003-2.653a106.253 106.253 0 0 0 7.516-1.728c2.492-.672 4.702-1.622 6.631-2.854a14.864 14.864 0 0 0 4.704-4.783C-.602 5.559 0 3.055 0 0" clip-path="url(#b)" transform="matrix(1.33333 0 0 -1.33333 884.212 53.163)"/>
  <path fill="#fff" d="M0 0v27.814c0 1.126.227 2.117.683 2.975a7.62 7.62 0 0 0 1.688 2.17 6.853 6.853 0 0 0 2.251 1.327c.83.294 1.62.442 2.371.442h6.029c.59 0 1.085-.189 1.487-.563.402-.376.604-.858.604-1.447V.161c0-3.055.709-5.467 2.13-7.235 1.419-1.769 3.738-2.653 6.953-2.653 3.216 0 5.533.884 6.954 2.653 1.42 1.768 2.13 4.18 2.13 7.235v27.733c0 1.126.228 2.117.684 2.975a7.266 7.266 0 0 0 1.729 2.171 6.833 6.833 0 0 0 2.25 1.286 7.385 7.385 0 0 0 2.331.402h6.03c.588 0 1.085-.189 1.487-.563.401-.376.603-.858.603-1.447V0c0-3.806-.577-7.089-1.729-9.848-1.152-2.761-2.773-5.038-4.863-6.833-2.091-1.796-4.622-3.135-7.597-4.019-2.974-.884-6.284-1.327-9.928-1.327-3.591 0-6.887.43-9.888 1.286-3.002.857-5.56 2.184-7.677 3.98-2.118 1.795-3.766 4.086-4.943 6.873C.588-7.102 0-3.806 0 0" clip-path="url(#c)" transform="matrix(1.33333 0 0 -1.33333 892.801 47.481)"/>
  <path fill="#fff" d="M0 0a2.02 2.02 0 0 0 1.486-.603c.402-.402.604-.871.604-1.406v-9.004c0-.591-.202-1.073-.604-1.447-.402-.376-.898-.563-1.486-.563h-18.65c1.177 0 2.236-.43 3.175-1.286.937-.858 1.406-1.823 1.406-2.894v-36.818c0-.59-.215-1.045-.642-1.367-.377-.375-.858-.562-1.448-.562h-11.174c-.591 0-1.072.187-1.447.562-.429.322-.642.777-.642 1.367v38.586c0 .75-.242 1.34-.725 1.769a2.46 2.46 0 0 1-1.687.643h-11.657c-.536 0-1.019.187-1.446.563-.431.374-.644.856-.644 1.447v4.1c0 1.017.2 1.955.602 2.813a7.064 7.064 0 0 0 3.86 3.618c.83.321 1.673.482 2.531.482z" clip-path="url(#d)" transform="matrix(1.33333 0 0 -1.33333 1025.618 .856)"/>
  <path fill="#fff" d="M0 0v47.027c0 2.036.696 3.71 2.09 5.025 1.393 1.312 3.027 1.969 4.903 1.969h6.433c.642 0 1.125-.188 1.446-.562.375-.376.562-.858.562-1.448V0c0-.536-.187-.992-.562-1.367-.321-.429-.804-.643-1.446-.643H2.01c-.537 0-1.006.201-1.406.603C.202-1.005 0-.536 0 0" clip-path="url(#e)" transform="matrix(1.33333 0 0 -1.33333 1036.35 72.992)"/>
  <path fill="#fff" d="M0 0v47.108c0 1.017.202 1.955.604 2.813a6.542 6.542 0 0 0 1.608 2.171 8.14 8.14 0 0 0 2.25 1.406 6.504 6.504 0 0 0 2.533.523h6.27c.588 0 1.044-.188 1.366-.562.374-.376.563-.858.563-1.447V13.023c0-.43.213-.952.644-1.568.427-.616 1.044-.924 1.848-.924H39.23c.589 0 1.085-.175 1.487-.523.402-.349.604-.843.604-1.487V0c0-.643-.202-1.139-.604-1.487-.402-.349-.898-.522-1.487-.522H2.01c-.482 0-.937.213-1.367.642C.214-.938 0-.482 0 0" clip-path="url(#f)" transform="matrix(1.33333 0 0 -1.33333 1070.34 72.885)"/>
  <path fill="url(#g)" d="m873.091 605.202-33.956-.022c-.342-.001-.495-.175-.342-.389l63.145-87.678a7.332 7.332 0 0 1 5.93-3.052l51.559.035c2.011.001 3.859.988 4.935 2.636l48.082 73.638c.14.215-.026.389-.368.389l-33.956-.023c-13.266-.009-28.382-6.762-33.764-15.082l-12.385-18.968-24.112 33.48c-5.932 8.308-21.481 15.036-34.742 15.036h-.026" transform="matrix(1.33333 0 0 -1.33333 -680.058 893.387)"/>
  <path fill="url(#h)" d="m979.024 502-51.442-.035c-2.007-.001-3.85-.985-4.924-2.63l-47.972-73.47c-.138-.214.027-.387.367-.387l33.879.023c13.235.009 28.318 6.746 33.688 15.048l12.356 18.924 24.057-33.404c5.922-8.294 21.452-15.01 34.688-15.001l33.878.022c.341 0 .494.174.342.388l-63.001 87.478a7.317 7.317 0 0 1-5.911 3.044h-.005m-4.365-6.591c0 2.353 1.635 4.119 3.924 4.119 2.289 0 3.858-1.7 3.858-4.119 0-2.355-1.569-4.121-3.989-4.121-2.223 0-3.793 1.766-3.793 4.121m-16.806 0c0 2.353 1.635 4.119 3.924 4.119 2.289 0 3.858-1.7 3.858-4.119 0-2.355-1.569-4.121-3.989-4.121-2.224 0-3.793 1.766-3.793 4.121m-16.807 0c0 2.353 1.636 4.119 3.924 4.119 2.29 0 3.859-1.7 3.859-4.119 0-2.355-1.569-4.121-3.989-4.121-2.223 0-3.794 1.766-3.794 4.121m-16.805 0c0 2.353 1.635 4.119 3.924 4.119 2.288 0 3.858-1.7 3.858-4.119 0-2.355-1.57-4.121-3.989-4.121-2.224 0-3.793 1.766-3.793 4.121m59.772-10.259c0 2.013 1.399 3.522 3.355 3.522 1.957 0 3.299-1.453 3.299-3.522 0-2.013-1.342-3.523-3.41-3.523-1.902 0-3.244 1.51-3.244 3.523m-17.052 0c0 2.013 1.398 3.522 3.355 3.522s3.299-1.453 3.299-3.522c0-2.013-1.342-3.523-3.411-3.523-1.901 0-3.243 1.51-3.243 3.523m-17.052 0c0 2.013 1.397 3.522 3.355 3.522 1.956 0 3.298-1.453 3.298-3.522 0-2.013-1.342-3.523-3.41-3.523-1.902 0-3.243 1.51-3.243 3.523m-17.052 0c0 2.013 1.397 3.522 3.354 3.522s3.3-1.453 3.3-3.522c0-2.013-1.343-3.523-3.411-3.523-1.902 0-3.243 1.51-3.243 3.523m-17.053 0c0 2.013 1.399 3.522 3.355 3.522 1.957 0 3.299-1.453 3.299-3.522 0-2.013-1.342-3.523-3.41-3.523-1.902 0-3.244 1.51-3.244 3.523m74.889-10.116c0 1.902 1.321 3.329 3.172 3.329 1.849 0 3.117-1.375 3.117-3.329 0-1.903-1.268-3.33-3.224-3.33-1.796 0-3.065 1.427-3.065 3.33m-16.018 0c0 1.902 1.321 3.329 3.171 3.329 1.849 0 3.118-1.375 3.118-3.329 0-1.903-1.269-3.33-3.224-3.33-1.797 0-3.065 1.427-3.065 3.33m-17.016 0c0 1.902 1.321 3.329 3.17 3.329 1.85 0 3.119-1.375 3.119-3.329 0-1.903-1.269-3.33-3.224-3.33-1.797 0-3.065 1.427-3.065 3.33m-17.017 0c0 1.902 1.321 3.329 3.171 3.329 1.849 0 3.118-1.375 3.118-3.329 0-1.903-1.269-3.33-3.223-3.33-1.798 0-3.066 1.427-3.066 3.33m-17.016 0c0 1.902 1.321 3.329 3.171 3.329 1.849 0 3.118-1.375 3.118-3.329 0-1.903-1.269-3.33-3.224-3.33-1.797 0-3.065 1.427-3.065 3.33m-14.023 0c0 1.902 1.321 3.329 3.171 3.329 1.849 0 3.118-1.375 3.118-3.329 0-1.903-1.269-3.33-3.225-3.33-1.796 0-3.064 1.427-3.064 3.33m58.746-10.327c0 1.513 1.051 2.649 2.521 2.649 1.473 0 2.482-1.094 2.482-2.649 0-1.514-1.009-2.649-2.565-2.649-1.429 0-2.438 1.135-2.438 2.649m31.603-.186c0 1.513 1.051 2.649 2.523 2.649 1.471 0 2.48-1.093 2.48-2.649 0-1.513-1.009-2.648-2.565-2.648-1.429 0-2.438 1.135-2.438 2.648m-15.766 0c0 1.513 1.051 2.649 2.523 2.649 1.471 0 2.48-1.093 2.48-2.649 0-1.513-1.009-2.648-2.564-2.648-1.43 0-2.439 1.135-2.439 2.648m-33.527 0c0 1.513 1.051 2.649 2.523 2.649 1.471 0 2.48-1.093 2.48-2.649 0-1.513-1.009-2.648-2.565-2.648-1.429 0-2.438 1.135-2.438 2.648m-16.763 0c0 1.513 1.051 2.649 2.523 2.649 1.471 0 2.48-1.093 2.48-2.649 0-1.513-1.009-2.648-2.564-2.648-1.43 0-2.439 1.135-2.439 2.648m-16.764 0c0 1.513 1.052 2.649 2.523 2.649 1.472 0 2.48-1.093 2.48-2.649 0-1.513-1.008-2.648-2.564-2.648-1.43 0-2.439 1.135-2.439 2.648m-13.77 0c0 1.513 1.052 2.649 2.523 2.649 1.472 0 2.48-1.093 2.48-2.649 0-1.513-1.008-2.648-2.565-2.648-1.429 0-2.438 1.135-2.438 2.648m105.256-9.978c0 1.307.908 2.286 2.177 2.286 1.271 0 2.142-.943 2.142-2.286 0-1.306-.871-2.286-2.215-2.286-1.232 0-2.104.98-2.104 2.286m-16.365 0c0 1.307.907 2.286 2.177 2.286 1.271 0 2.141-.943 2.141-2.286 0-1.306-.87-2.286-2.213-2.286-1.234 0-2.105.98-2.105 2.286m-14.334 0c0 1.307.907 2.286 2.177 2.286 1.271 0 2.142-.943 2.142-2.286 0-1.306-.871-2.286-2.214-2.286-1.234 0-2.105.98-2.105 2.286m-14.333 0c0 1.307.907 2.286 2.178 2.286 1.27 0 2.141-.943 2.141-2.286 0-1.306-.871-2.286-2.214-2.286-1.234 0-2.105.98-2.105 2.286m-24.602 0c0 1.307.907 2.286 2.177 2.286 1.269 0 2.141-.943 2.141-2.286 0-1.306-.872-2.286-2.214-2.286-1.234 0-2.104.98-2.104 2.286m-14.334 0c0 1.307.907 2.286 2.177 2.286s2.141-.943 2.141-2.286c0-1.306-.871-2.286-2.214-2.286-1.234 0-2.104.98-2.104 2.286m-14.333 0c0 1.307.907 2.286 2.177 2.286s2.141-.943 2.141-2.286c0-1.306-.871-2.286-2.214-2.286-1.233 0-2.104.98-2.104 2.286m-14.334 0c0 1.307.908 2.286 2.177 2.286 1.27 0 2.142-.943 2.142-2.286 0-1.306-.872-2.286-2.215-2.286-1.233 0-2.104.98-2.104 2.286" transform="matrix(1.33333 0 0 -1.33333 -680.058 893.387)"/>
  <path fill="#fff" d="M0 0h-86.057v-129.183c0-9.362 7.59-16.952 16.953-16.952h6.426V-23.38H0c21.739 0 39.426-19.324 39.426-43.076v-63.893c0-8.718 7.068-15.786 15.786-15.786h7.593v79.679C62.805-29.812 34.631 0 0 0" clip-path="url(#i)" transform="matrix(1.33333 0 0 -1.33333 114.743 122.084)"/>
  <path fill="#fff" d="M0 0c5.15 24.349 26.81 42.679 52.669 42.679 25.86 0 47.519-18.33 52.67-42.679zm51.919 64.978c-41.913-.405-75.383-35.185-75.383-77.1v-10.181h152.267v11.152c0 42.229-34.561 76.539-76.884 76.129" clip-path="url(#j)" transform="matrix(1.33333 0 0 -1.33333 272.323 204.664)"/>
  <path fill="#fff" d="M0 0c-19.377 0-37.09 10.495-46.596 26.873h-24.609C-60.048-2.584-31.585-22.303 0-22.303S60.048-2.584 71.205 26.873H56.587c-5.847 0-11.301-2.72-15.023-7.228C31.514 7.472 16.349 0 0 0" clip-path="url(#k)" transform="matrix(1.33333 0 0 -1.33333 342.55 291.306)"/>
  <path fill="#fff" d="M0 0h-62.679c-21.738 0-39.425 19.324-39.425 43.076v79.679h-9.772c-7.515 0-13.606-6.091-13.606-13.606V43.076c0-36.644 28.173-66.456 62.803-66.456h86.058v146.135h-9.842C6.061 122.755 0 116.695 0 109.219Z" clip-path="url(#l)" transform="matrix(1.33333 0 0 -1.33333 887.416 290.592)"/>
  <path fill="#fff" d="M0 0c5.968 25.379 28.787 44.335 55.96 44.335a57.44 57.44 0 0 0 38.419-14.716c6.261-5.624 15.467-6.45 22.441-1.738l6.561 4.432c-15.916 23.558-42.895 37.151-71.464 35.743-43.473-2.143-77.27-38.768-77.27-82.294v-10.83h130.421C99.1-50.447 76.281-69.404 49.107-69.404A57.446 57.446 0 0 0 9.242-53.343c-5.151 4.957-12.992 5.8-18.915 1.798l-8.64-5.837c15.916-23.557 42.893-37.15 71.461-35.743 43.474 2.141 77.273 38.768 77.273 82.295V0Z" clip-path="url(#m)" transform="matrix(1.33333 0 0 -1.33333 994.043 208.512)"/>
</svg>
