<?xml version="1.0" encoding="utf-8"?>
<svg width="108.333" height="50" viewBox="0 0 108.333 50" fill="none" xmlns="http://www.w3.org/2000/svg">
  <path d="M4.26955 34.0563C1.90364 34.0563 0 35.9717 0 38.3013C0 40.6818 1.90364 42.5972 4.26955 42.5972C6.58482 42.5972 8.48715 40.6818 8.48715 38.3013C8.48715 35.9717 6.58482 34.0563 4.26955 34.0563C4.26955 34.0563 4.26955 34.0563 4.26955 34.0563ZM4.26955 22.722C1.90364 22.722 0 24.6361 0 26.9657C0 29.2952 1.90364 31.2093 4.26955 31.2093C6.58482 31.2093 8.48715 29.2939 8.48715 26.9657C8.48715 24.6374 6.58482 22.722 4.26955 22.722C4.26955 22.722 4.26955 22.722 4.26955 22.722ZM4.26955 11.3865C1.90364 11.3865 0 13.3019 0 15.6315C0 17.961 1.90364 19.8751 4.26955 19.8751C6.58482 19.8751 8.48715 17.9597 8.48715 15.6315C8.48715 13.3032 6.58482 11.3865 4.26955 11.3865C4.26955 11.3865 4.26955 11.3865 4.26955 11.3865ZM4.26955 0C1.90364 0 0 1.91539 0 4.24364C0 6.62416 1.90364 8.53955 4.26955 8.53955C6.58482 8.53955 8.48715 6.62416 8.48715 4.24364C8.48715 1.91539 6.58482 0 4.26955 0C4.26955 0 4.26955 0 4.26955 0ZM15.5355 22.722C13.2203 22.722 11.3179 24.6374 11.3179 26.9657C11.3179 29.2939 13.2216 31.2093 15.5355 31.2093C17.9015 31.2093 19.8051 29.2939 19.8051 26.9657C19.8051 24.6374 17.9015 22.722 15.5355 22.722C15.5355 22.722 15.5355 22.722 15.5355 22.722ZM15.5355 11.3865C13.2203 11.3865 11.3179 13.3019 11.3179 15.6302C11.3179 17.9584 13.2216 19.8738 15.5355 19.8738C17.9015 19.8738 19.8051 17.9584 19.8051 15.6302C19.8051 13.3019 17.9015 11.3865 15.5355 11.3865C15.5355 11.3865 15.5355 11.3865 15.5355 11.3865ZM15.5355 0C13.2203 0 11.3179 1.91539 11.3179 4.24364C11.3179 6.62416 13.2216 8.53955 15.5355 8.53955C17.9015 8.53955 19.8051 6.62416 19.8051 4.24364C19.8051 1.91539 17.9015 0 15.5355 0C15.5355 0 15.5355 0 15.5355 0ZM26.8522 11.3865C24.4863 11.3865 22.5826 13.3019 22.5826 15.6302C22.5826 17.9584 24.4863 19.8738 26.8522 19.8738C29.1675 19.8738 31.0698 17.9584 31.0698 15.6302C31.0698 13.3019 29.1662 11.3865 26.8522 11.3865C26.8522 11.3865 26.8522 11.3865 26.8522 11.3865ZM79.9385 31.3648L83.1797 31.3648L83.1797 16.2521L79.6308 16.2521C79.6308 16.2521 79.6308 27.1212 79.6308 27.1212C79.2711 27.5876 78.7569 27.9495 78.1907 28.2605C77.6246 28.5714 77.0078 28.7269 76.2871 28.7269C75.6703 28.7269 75.2067 28.5205 74.8977 28.1573C74.6406 27.7431 74.486 27.018 74.486 26.0354C74.486 26.0354 74.486 16.2534 74.486 16.2534L70.9372 16.2534C70.9372 16.2534 70.9372 26.5528 70.9372 26.5528C70.9372 28.1573 71.2969 29.3998 72.0175 30.2791C72.7889 31.2107 73.8692 31.6248 75.3093 31.6248C76.6468 31.6248 78.1388 31.0042 79.9385 29.7094C79.9385 29.7094 79.9385 31.3648 79.9385 31.3648L79.9385 31.3648ZM68.1064 27.1212C68.1064 25.8787 67.7973 24.9471 67.1286 24.2742C66.4079 23.5491 65.6366 23.0317 64.6601 22.6698C63.6823 22.2556 62.8084 21.8937 61.9332 21.5305C61.0593 21.1163 60.6476 20.6512 60.6476 20.1325C60.6476 19.6661 60.8022 19.3041 61.1618 19.0455C61.4709 18.7868 61.9851 18.6313 62.6538 18.6313C63.5278 18.6313 64.4549 19.1487 65.4314 20.2357C65.4314 20.2357 67.6947 18.2171 67.6947 18.2171C67.026 17.492 66.2547 16.9236 65.3288 16.5604C64.4549 16.1462 63.4771 15.9908 62.4487 15.9908C61.7799 15.9908 61.1631 16.043 60.545 16.2495C59.9789 16.4559 59.4647 16.7159 59.0024 17.1288C58.5388 17.4907 58.1791 17.9571 57.8701 18.5268C57.613 19.0964 57.5104 19.717 57.5104 20.3899C57.5104 21.8911 57.922 22.9259 58.7453 23.4955C59.6192 24.0129 60.8541 24.6348 62.5006 25.2554C64.1472 25.9283 64.9691 26.6012 64.9691 27.274C64.9691 27.7914 64.764 28.1534 64.403 28.5166C63.9913 28.8275 63.4771 28.983 62.8603 28.983C61.5748 28.983 60.3918 28.2579 59.3621 26.758C59.3621 26.758 56.9962 28.5701 56.9962 28.5701C57.613 29.554 58.4362 30.33 59.414 30.8474C60.3918 31.3648 61.4722 31.6235 62.6552 31.6235C63.6836 31.6235 64.6614 31.468 65.4846 31.1571C66.3079 30.8461 66.9767 30.3287 67.4389 29.6559C67.9012 28.932 68.1064 28.105 68.1064 27.1212C68.1064 27.1212 68.1064 27.1212 68.1064 27.1212ZM96.8102 10.093L100.359 10.093L100.359 13.4574L96.8102 13.4574L96.8102 10.093ZM104.784 10.4027L108.333 10.4027L108.333 31.3648L104.784 31.3648L104.784 10.4027ZM96.8102 16.2521L100.359 16.2521L100.359 31.3648L96.8102 31.3648L96.8102 16.2521ZM87.4478 28.156C87.4478 30.4855 88.6827 31.6235 91.1006 31.6235C91.6667 31.6235 92.5926 31.5713 93.9301 31.4171C93.9301 31.4171 93.9301 28.4147 93.9301 28.4147C93.0042 28.6211 92.49 28.7256 92.2835 28.7256C91.82 28.7256 91.5122 28.6734 91.3058 28.5192C91.1006 28.3637 90.9967 28.105 90.9967 27.6908C90.9967 27.6908 90.9967 19.2022 90.9967 19.2022L93.9288 19.2022L93.9288 16.2521L90.9967 16.2521L90.9967 11.231L87.4478 11.231L87.4478 16.2521L85.391 16.2521L85.391 19.2022L87.4491 19.2022L87.4491 28.156C87.4491 28.156 87.4478 28.156 87.4478 28.156ZM54.6302 22.1001C54.6302 20.5989 54.4238 19.4087 54.1147 18.5294C53.7044 17.6488 53.0863 16.9759 52.263 16.614C51.4398 16.1998 50.3088 15.9921 48.9713 15.9921C48.9713 15.9921 48.6116 15.9921 48.6116 15.9921C48.0454 15.9921 47.3767 16.0966 46.7599 16.303C46.0392 16.5617 45.3705 16.8727 44.7537 17.2868C44.1356 17.701 43.6733 18.2184 43.3643 18.7358C43.3643 18.7358 45.6795 20.4957 45.6795 20.4957C46.0912 19.9261 46.5534 19.4609 47.0676 19.15C47.4793 18.839 48.0454 18.6835 48.6116 18.6835C48.7661 18.6326 48.8687 18.6326 48.9713 18.6326C49.64 18.6326 50.1542 18.7881 50.5659 19.0977C50.9256 19.4087 51.132 19.8751 51.132 20.4434C51.132 20.4434 51.132 21.7382 51.132 21.7382C50.2062 21.8414 49.3829 21.9969 48.6116 22.1524C46.9651 22.5143 45.6276 23.0317 44.7017 23.7046C43.2617 24.6361 42.5929 25.9296 42.5929 27.6386C42.5929 28.3114 42.7475 28.9843 43.0552 29.6049C43.3642 30.2255 43.8278 30.6919 44.4446 31.1061C45.0614 31.468 45.7821 31.6235 46.656 31.6235C47.2222 31.6235 47.7883 31.5713 48.3025 31.468C48.4051 31.4171 48.5077 31.4171 48.6116 31.3648C49.0232 31.2616 49.4348 31.1061 49.7945 30.8984C50.2568 30.692 50.771 30.381 51.2865 30.0714C51.2865 30.0714 51.4917 31.3648 51.4917 31.3648C51.4917 31.3648 54.938 31.3648 54.938 31.3648C54.7328 30.7952 54.6302 30.0714 54.6302 29.1385C54.6302 29.1385 54.6302 22.1001 54.6302 22.1001C54.6302 22.1001 54.6302 22.1001 54.6302 22.1001ZM51.132 27.3798C50.6684 27.794 50.1036 28.1559 49.4855 28.4656C49.2284 28.6211 48.9193 28.7765 48.6116 28.8288C48.3545 28.932 48.0974 28.9843 47.8909 28.9843C47.3247 28.9843 46.9131 28.8288 46.6054 28.4656C46.2963 28.1559 46.1418 27.7418 46.1418 27.2244C46.1418 26.5515 46.3989 26.0341 46.8625 25.6199C47.3247 25.2058 47.839 24.998 48.5077 24.7916C48.5596 24.7916 48.6116 24.7393 48.6116 24.7393C49.2803 24.5838 50.1036 24.3774 51.132 24.1697C51.132 24.1697 51.132 27.3798 51.132 27.3798C51.132 27.3798 51.132 27.3798 51.132 27.3798ZM50.5139 46.0125L51.7488 46.0125L51.7488 49.9465L52.2631 49.9465L52.2631 46.0125L53.5499 46.0125L53.5499 45.5983L50.5139 45.5983L50.5139 46.0125ZM53.7031 46.7885L54.1667 46.7885L54.1667 49.9451L53.7031 49.9451L53.7031 46.7885ZM53.4979 42.3385C53.3434 42.4417 53.1889 42.4939 52.9837 42.4939C52.8292 42.4939 52.6747 42.4417 52.5721 42.3385C52.4176 42.2352 52.315 42.0798 52.263 41.9243C52.2111 41.7178 52.1605 41.5101 52.1605 41.2514C52.1605 40.9927 52.2124 40.734 52.263 40.5786C52.315 40.3721 52.4176 40.2166 52.5721 40.1121C52.6747 40.0089 52.8292 39.9566 52.9837 39.9566C53.1382 39.9566 53.2408 40.0089 53.3434 40.0599C53.446 40.1108 53.4979 40.1631 53.5486 40.2663C53.6512 40.3695 53.7031 40.4727 53.7537 40.5772C53.7537 40.5772 54.1134 40.474 54.1134 40.474C54.0108 40.1631 53.8563 39.9566 53.7018 39.8534C53.5473 39.6979 53.2902 39.5947 52.9811 39.5947C52.724 39.5947 52.5175 39.6979 52.3124 39.8012C52.1579 39.9566 52.0033 40.1121 51.9007 40.3708C51.7982 40.6295 51.7462 40.8882 51.7462 41.2501C51.7462 41.5611 51.7982 41.8707 51.9007 42.0785C52.0033 42.3372 52.1579 42.5449 52.3124 42.6481C52.5175 42.8036 52.724 42.8545 52.9811 42.8545C53.1863 42.8545 53.3927 42.8545 53.4953 42.7513C53.6499 42.6991 53.7524 42.6481 53.855 42.5449C53.9576 42.4417 54.0602 42.2862 54.1641 42.0784C54.1641 42.0784 53.855 41.923 53.855 41.923C53.755 42.1307 53.6005 42.2862 53.4979 42.3384C53.4979 42.3384 53.4979 42.3385 53.4979 42.3385ZM53.7031 45.5473L54.1667 45.5473L54.1667 46.0647L53.7031 46.0647L53.7031 45.5473ZM60.1853 46.944C60.0828 46.8917 59.9802 46.8408 59.8763 46.7885C59.7737 46.7362 59.6711 46.7362 59.5672 46.7362C59.3621 46.7362 59.2076 46.7885 59.053 46.8917C58.8985 46.944 58.744 47.0472 58.6414 47.2027C58.6414 47.2027 58.6414 46.7885 58.6414 46.7885L58.1778 46.7885L58.1778 49.9451L58.6414 49.9451C58.6414 49.9451 58.6414 47.5646 58.6414 47.5646C58.744 47.4614 58.8985 47.3582 59.053 47.2536C59.2076 47.1491 59.3621 47.0982 59.5166 47.0982C59.8257 47.0982 60.0308 47.3046 60.0308 47.6678C60.0308 47.6678 60.0308 49.9451 60.0308 49.9451L60.4425 49.9451C60.4425 49.9451 60.4425 47.6678 60.4425 47.6678C60.4425 47.5123 60.3905 47.3568 60.3399 47.2536C60.3399 47.0995 60.236 46.9962 60.1853 46.944C60.1853 46.944 60.1853 46.944 60.1853 46.944ZM56.7897 49.48C56.6352 49.5832 56.4807 49.6355 56.2755 49.6355C56.2236 49.6355 56.2236 49.6355 56.1729 49.5832C56.0184 49.5832 55.9158 49.5309 55.8132 49.48C55.6587 49.3768 55.5561 49.2213 55.5042 49.0658C55.4016 48.8594 55.3497 48.7039 55.3497 48.4452C55.3497 48.4452 57.3559 48.4452 57.3559 48.4452C57.3559 48.4452 57.3559 48.1865 57.3559 48.1865C57.3559 47.6691 57.2533 47.3072 57.0468 47.0995C56.8417 46.8408 56.5326 46.7375 56.1729 46.7375C55.9678 46.7375 55.8132 46.7898 55.6587 46.8408C55.5042 46.944 55.4016 47.0472 55.299 47.1517C55.1964 47.3072 55.0939 47.5136 55.0419 47.6691C54.99 47.8755 54.9393 48.1355 54.9393 48.342C54.9393 48.7039 54.9913 49.0148 55.1445 49.2735C55.2471 49.5322 55.4016 49.6877 55.6081 49.8432C55.7626 49.8954 55.9678 49.9464 56.1742 49.9987C56.1742 49.9987 56.2768 49.9987 56.2768 49.9987C56.482 49.9987 56.6884 49.9464 56.843 49.8954C56.9975 49.8445 57.1001 49.74 57.2027 49.6367C57.3052 49.5335 57.4078 49.4303 57.4598 49.2748C57.4598 49.2748 57.1507 49.0684 57.1507 49.0684C57.0468 49.2735 56.9442 49.3768 56.7897 49.48C56.7897 49.48 56.7897 49.48 56.7897 49.48ZM55.6067 47.3581C55.7612 47.2027 55.9158 47.0994 56.1729 47.0994C56.1729 47.0994 56.2248 47.0994 56.2248 47.0994C56.3274 47.0994 56.43 47.1517 56.5338 47.2027C56.6364 47.2027 56.6884 47.3059 56.739 47.3581C56.8416 47.4614 56.8416 47.5646 56.8935 47.6691C56.9455 47.8246 56.9455 47.9278 56.9455 48.0833C56.9455 48.0833 55.4028 48.0833 55.4028 48.0833C55.4015 47.7723 55.5041 47.5659 55.6067 47.3581C55.6067 47.3581 55.6067 47.3581 55.6067 47.3581ZM58.2297 42.8036C58.2297 42.8036 58.6933 42.8036 58.6933 42.8036C58.6414 42.5972 58.6414 42.3894 58.6414 42.1307C58.6414 42.1307 58.6414 40.5263 58.6414 40.5263C58.6414 40.3199 58.5894 40.1644 58.4868 40.0089C58.3842 39.8534 58.2297 39.7502 58.0752 39.6979C57.9207 39.6457 57.7662 39.5947 57.561 39.5947C57.561 39.5947 57.4584 39.5947 57.4584 39.5947C57.2532 39.647 57.0468 39.6979 56.8416 39.8012C56.6364 39.9044 56.5326 40.0599 56.378 40.2676C56.378 40.2676 56.7897 40.474 56.7897 40.474C56.8416 40.3185 56.8922 40.2153 57.0468 40.1121C57.1494 40.0599 57.3039 40.0089 57.4584 40.0089C57.5103 39.9566 57.5103 39.9566 57.561 39.9566C57.6636 39.9566 57.8181 40.0089 57.87 40.0599C57.9726 40.0599 58.0752 40.1631 58.1272 40.2153C58.1791 40.3185 58.1791 40.4218 58.1791 40.5772C58.1791 40.5772 58.1791 40.7327 58.1791 40.7327C57.922 40.785 57.6649 40.8359 57.4584 40.8882C57.4065 40.8882 57.3558 40.9405 57.3039 40.9405C57.0987 40.9927 56.8923 41.0959 56.7377 41.1992C56.5832 41.3024 56.4806 41.4056 56.4287 41.5611C56.3261 41.6643 56.3261 41.8198 56.3261 42.0275C56.3261 42.2862 56.378 42.4939 56.5832 42.6481C56.7377 42.8036 56.9429 42.8545 57.2 42.8545C57.2 42.8545 57.4571 42.8545 57.4571 42.8545C57.7662 42.7513 57.9713 42.5958 58.2284 42.3881C58.2284 42.3881 58.2284 42.8036 58.2284 42.8036L58.2297 42.8036ZM58.1791 41.9753C58.0765 42.1307 57.922 42.2339 57.7155 42.3372C57.6636 42.3894 57.561 42.4404 57.4584 42.4404C57.4065 42.4926 57.3039 42.4926 57.2533 42.4926C57.0987 42.4926 56.9961 42.4404 56.8936 42.3372C56.791 42.2339 56.739 42.1307 56.739 42.0262C56.739 41.8707 56.791 41.7152 56.8936 41.612C56.9962 41.5088 57.1507 41.4056 57.3571 41.3011C57.3571 41.3011 57.4597 41.3011 57.4597 41.3011C57.6649 41.1979 57.9233 41.1456 58.1804 41.0946C58.1804 41.0946 58.1804 41.9753 58.1804 41.9753C58.1804 41.9753 58.1791 41.9753 58.1791 41.9753ZM51.132 42.0798C51.2346 41.8211 51.2865 41.5624 51.2865 41.2514C51.2865 40.9405 51.2346 40.6308 51.132 40.4231C51.0294 40.1644 50.9268 39.9566 50.7204 39.8025C50.5152 39.6992 50.3087 39.596 49.9997 39.596C49.7426 39.596 49.5361 39.6992 49.3309 39.8025C49.1258 39.9579 49.0219 40.1644 48.9193 40.4231C48.8167 40.6295 48.7648 40.9405 48.7648 41.2514C48.7648 41.4578 48.7648 41.6656 48.8167 41.872C48.8687 42.0784 48.9713 42.2339 49.0738 42.3894C49.1764 42.5449 49.3309 42.6481 49.4855 42.7513C49.64 42.8036 49.8452 42.8545 49.9997 42.8545C50.3087 42.8545 50.5139 42.8023 50.7204 42.6481C50.9255 42.4926 51.0281 42.2862 51.132 42.0798C51.132 42.0798 51.132 42.0798 51.132 42.0798ZM50.4633 42.3384C50.3607 42.4417 50.2062 42.4939 49.9997 42.4939C49.7426 42.4939 49.5881 42.3907 49.4336 42.183C49.2644 41.9021 49.1754 41.5798 49.1765 41.2514C49.1765 40.8372 49.279 40.5263 49.4336 40.3198C49.5881 40.1134 49.7426 39.9579 49.9997 39.9579C50.2049 39.9579 50.3594 40.0102 50.4633 40.1134C50.6178 40.2166 50.6684 40.3721 50.7723 40.5276C50.8243 40.734 50.8749 40.9418 50.8749 41.2527C50.8749 41.5114 50.823 41.7191 50.7723 41.9256C50.6685 42.1307 50.6178 42.2339 50.4633 42.3384C50.4633 42.3384 50.4633 42.3384 50.4633 42.3384ZM55.0406 38.4045L55.4522 38.4045L55.4522 38.9218L55.0406 38.9218L55.0406 38.4045ZM62.6032 39.6979L63.0148 39.6979L63.0148 42.8036L62.6032 42.8036L62.6032 39.6979ZM65.895 38.4554L65.2782 38.4554L65.1236 38.6631L64.712 39.2838L65.1236 39.2838L65.895 38.4554ZM82.2525 40.2676C82.2525 40.2676 82.6122 40.474 82.6122 40.474C82.6641 40.3186 82.7667 40.2153 82.8693 40.1121C82.9719 40.0599 83.1264 40.0089 83.3329 40.0089C83.3329 39.9566 83.3848 39.9566 83.3848 39.9566C83.5393 39.9566 83.6419 40.0089 83.7445 40.0599C83.8471 40.0599 83.899 40.1631 83.9497 40.2153C84.0016 40.3186 84.0522 40.4218 84.0522 40.5772C84.0522 40.5772 84.0522 40.7327 84.0522 40.7327C83.7432 40.785 83.538 40.8359 83.3316 40.8882C83.229 40.8882 83.177 40.9405 83.177 40.9405C82.9199 40.9927 82.7135 41.0959 82.5602 41.1992C82.4577 41.3024 82.3031 41.4056 82.2512 41.5611C82.1992 41.6643 82.1486 41.8198 82.1486 42.0275C82.1486 42.2862 82.2512 42.4939 82.4057 42.6481C82.5602 42.8036 82.7654 42.8545 83.0225 42.8545C83.0225 42.8545 83.3316 42.8545 83.3316 42.8545C83.5887 42.7513 83.8458 42.5958 84.0522 42.3881C84.0522 42.3881 84.1042 42.8023 84.1042 42.8023C84.1042 42.8023 84.5158 42.8023 84.5158 42.8023C84.4639 42.5959 84.4639 42.3881 84.4639 42.1294C84.4639 42.1294 84.4639 40.525 84.4639 40.525C84.4639 40.3186 84.4119 40.1631 84.3094 40.0076C84.2068 39.8521 84.1042 39.7489 83.8977 39.6966C83.7432 39.6444 83.5887 39.5934 83.3835 39.5934C83.3835 39.5934 83.3316 39.5934 83.3316 39.5934C83.0745 39.6457 82.868 39.6966 82.7148 39.7999C82.5096 39.9057 82.3564 40.0612 82.2525 40.2676C82.2525 40.2676 82.2525 40.2676 82.2525 40.2676ZM84.0536 41.9753C83.899 42.1307 83.7445 42.2339 83.59 42.3372C83.4874 42.3894 83.3848 42.4404 83.3329 42.4404C83.2303 42.4926 83.1783 42.4926 83.0758 42.4926C82.9732 42.4926 82.8706 42.4404 82.7161 42.3372C82.6135 42.2339 82.5616 42.1307 82.5616 42.0262C82.5616 41.8707 82.6135 41.7152 82.7161 41.612C82.8706 41.5088 83.0251 41.4056 83.2303 41.3011C83.2303 41.3011 83.3329 41.3011 83.3329 41.3011C83.4874 41.1979 83.7445 41.1456 84.0536 41.0946C84.0536 41.0946 84.0536 41.9753 84.0536 41.9753C84.0536 41.9753 84.0536 41.9753 84.0536 41.9753ZM62.6032 38.4045L63.0148 38.4045L63.0148 38.9218L62.6032 38.9218L62.6032 38.4045ZM47.6858 49.48C47.5312 49.5832 47.3767 49.6355 47.1716 49.6355C47.1196 49.6355 47.069 49.6355 47.069 49.5832C46.9144 49.5832 46.8119 49.5309 46.7093 49.48C46.5547 49.3768 46.4522 49.2213 46.4002 49.0658C46.2977 48.8594 46.2457 48.7039 46.2457 48.4452C46.2457 48.4452 48.2519 48.4452 48.2519 48.4452C48.2519 48.4452 48.2519 48.1865 48.2519 48.1865C48.2519 47.6691 48.1494 47.3072 47.9429 47.0995C47.6858 46.8408 47.4287 46.7375 47.069 46.7375C46.8638 46.7375 46.7093 46.7898 46.5547 46.8408C46.4002 46.944 46.2977 47.0472 46.1951 47.1517C46.0405 47.3072 45.9899 47.5136 45.938 47.6691C45.8354 47.8755 45.8354 48.1355 45.8354 48.342C45.8354 48.7039 45.8873 49.0148 45.9899 49.2735C46.1444 49.5322 46.299 49.6877 46.5041 49.8432C46.6586 49.8954 46.8638 49.9464 47.0703 49.9987C47.0703 49.9987 47.1729 49.9987 47.1729 49.9987C47.378 49.9987 47.5845 49.9464 47.739 49.8954C47.8935 49.8445 47.9961 49.74 48.0987 49.6367C48.2013 49.5335 48.2532 49.4303 48.3558 49.2748C48.3558 49.2748 48.0468 49.0684 48.0468 49.0684C47.9429 49.2735 47.7884 49.3768 47.6858 49.48C47.6858 49.48 47.6858 49.48 47.6858 49.48ZM46.5015 47.3581C46.656 47.2027 46.8105 47.0994 47.0676 47.0994C47.0676 47.0994 47.1196 47.0994 47.1196 47.0994C47.2221 47.0994 47.3247 47.1517 47.4286 47.2027C47.4805 47.2027 47.5831 47.3059 47.6338 47.3581C47.6857 47.4614 47.7364 47.5646 47.7883 47.6691C47.7883 47.8246 47.8402 47.9278 47.8402 48.0833C47.8402 48.0833 46.2457 48.0833 46.2457 48.0833C46.2963 47.7723 46.3482 47.5659 46.5015 47.3581C46.5015 47.3581 46.5015 47.3581 46.5015 47.3581ZM47.3767 40.9927C47.2741 40.9405 47.1715 40.8895 47.0676 40.8895C46.9131 40.8372 46.8105 40.7863 46.7586 40.734C46.656 40.6818 46.5534 40.5786 46.5534 40.4231C46.5534 40.3199 46.6054 40.2166 46.7079 40.1121C46.8105 40.0599 46.9131 40.0089 47.0676 40.0089C47.0676 39.9566 47.1196 39.9566 47.1196 39.9566C47.2741 39.9566 47.4286 40.0089 47.5832 40.1121C47.6857 40.1644 47.7883 40.2676 47.9428 40.4231C47.9428 40.4231 48.2 40.1644 48.2 40.1644C48.0974 40.0089 47.9948 39.8534 47.7883 39.7502C47.5832 39.647 47.3767 39.5947 47.1715 39.5947C47.1715 39.5947 47.0689 39.5947 47.0689 39.5947C46.9664 39.647 46.8638 39.647 46.7599 39.647C46.6573 39.6992 46.5028 39.7502 46.4508 39.8534C46.3483 39.9057 46.2963 40.0089 46.2457 40.1121C46.1937 40.2153 46.1431 40.3185 46.1431 40.474C46.1431 40.6805 46.2457 40.8882 46.4002 41.0437C46.5547 41.1469 46.7599 41.2501 47.0689 41.3546C47.378 41.4578 47.5832 41.5101 47.7377 41.6133C47.8922 41.6656 47.9428 41.8198 47.9428 41.9752C47.9428 42.1307 47.8909 42.2339 47.7883 42.3371C47.6338 42.4404 47.4793 42.4926 47.2741 42.4926C47.2222 42.4926 47.1196 42.4926 47.0689 42.4404C46.7599 42.3881 46.5547 42.2339 46.4002 42.0262C46.4002 42.0262 46.0405 42.2849 46.0405 42.2849C46.195 42.4404 46.4002 42.5958 46.6067 42.6991C46.7612 42.7513 46.9157 42.8023 47.0702 42.8545C47.0702 42.8545 47.2754 42.8545 47.2754 42.8545C47.4806 42.8545 47.687 42.8023 47.8416 42.7513C47.9961 42.6991 48.0987 42.5958 48.2012 42.4404C48.3038 42.2849 48.3558 42.1294 48.3558 41.923C48.3558 41.6643 48.3038 41.5088 48.1506 41.3533C47.9428 41.1992 47.7364 41.0959 47.3767 40.9927C47.3767 40.9927 47.3767 40.9927 47.3767 40.9927ZM44.085 38.4554L43.7759 38.4554L42.4384 42.8036L42.9526 42.8036L43.3123 41.4578L44.855 41.4578L45.2666 42.8036L45.7808 42.8036L44.4433 38.4554L44.085 38.4554L44.085 38.4554ZM44.0849 41.0437L43.4681 41.0437L44.0849 38.7664L44.1369 38.7664L44.7537 41.0437L44.0849 41.0437L44.0849 41.0437ZM45.0614 45.5983L44.6498 45.5983L44.6498 47.0995C44.6498 47.0995 44.5979 47.0995 44.5979 47.0995C44.4433 46.944 44.2888 46.8408 44.0836 46.7886C43.981 46.7363 43.9291 46.7363 43.8265 46.7363C43.6214 46.7363 43.4149 46.7886 43.2097 46.8918C43.0552 46.995 42.9007 47.2027 42.7462 47.4092C42.6436 47.6679 42.5916 47.9788 42.5916 48.3407C42.5916 48.6517 42.5916 48.9104 42.6942 49.1168C42.7462 49.3232 42.8487 49.531 43.0033 49.6342C43.1059 49.7374 43.2604 49.8406 43.3629 49.8929C43.5175 49.9452 43.672 49.9961 43.8265 49.9961C43.9291 49.9961 44.0317 49.9961 44.0836 49.9439C44.1862 49.9439 44.2382 49.8916 44.2888 49.8916C44.4433 49.7884 44.5459 49.7361 44.6485 49.6329C44.6485 49.6329 44.7004 49.9439 44.7004 49.9439C44.7004 49.9439 45.1121 49.9439 45.1121 49.9439C45.0601 49.7884 45.0601 49.5297 45.0601 49.2187C45.0601 49.2187 45.0601 45.5983 45.0601 45.5983L45.0614 45.5983ZM44.6498 49.2213C44.4953 49.3767 44.3407 49.48 44.2382 49.5322C44.1862 49.5322 44.1356 49.5845 44.0836 49.5845C44.0317 49.5845 43.9291 49.6367 43.8785 49.6367C43.5694 49.6367 43.3643 49.5335 43.2097 49.2748C43.0552 49.0684 43.0046 48.7574 43.0046 48.3955C43.0046 48.0846 43.0565 47.8259 43.1071 47.6704C43.1591 47.464 43.2617 47.3085 43.4162 47.2562C43.5707 47.153 43.6733 47.1007 43.8798 47.1007C43.9317 47.1007 44.0343 47.1007 44.0849 47.153C44.1369 47.153 44.1875 47.2053 44.2395 47.2053C44.394 47.3085 44.4966 47.4117 44.6511 47.5672C44.6511 47.5672 44.6511 49.2213 44.6511 49.2213C44.6511 49.2213 44.6498 49.2213 44.6498 49.2213ZM55.0406 39.6979L55.4522 39.6979L55.4522 42.8036L55.0406 42.8036L55.0406 39.6979ZM61.728 42.0798C61.728 42.0798 61.3683 41.9243 61.3683 41.9243C61.2657 42.1307 61.1112 42.2862 61.0086 42.3385C60.906 42.4417 60.6995 42.4939 60.545 42.4939C60.3398 42.4939 60.1853 42.4417 60.0815 42.3385C59.9269 42.2352 59.8763 42.0798 59.7724 41.9243C59.7205 41.7178 59.6698 41.5101 59.6698 41.2514C59.6698 40.9927 59.7217 40.734 59.7724 40.5786C59.875 40.3721 59.9269 40.2166 60.0815 40.1121C60.184 40.0089 60.3385 39.9566 60.545 39.9566C60.6476 39.9566 60.7502 40.0089 60.8541 40.0599C60.9579 40.1108 61.0086 40.1631 61.1112 40.2663C61.1631 40.3695 61.2138 40.4727 61.2657 40.5772C61.2657 40.5772 61.6254 40.474 61.6254 40.474C61.5228 40.1631 61.4202 39.9566 61.2138 39.8534C61.0592 39.6979 60.8021 39.5947 60.545 39.5947C60.2879 39.5947 60.0308 39.6979 59.8763 39.8012C59.6711 39.9566 59.5166 40.1121 59.4127 40.3708C59.3088 40.6295 59.2582 40.8882 59.2582 41.2501C59.2582 41.5611 59.3101 41.8707 59.4127 42.0785C59.5153 42.3372 59.6698 42.5449 59.8763 42.6481C60.0308 42.8036 60.2879 42.8545 60.545 42.8545C60.6995 42.8545 60.9047 42.8545 61.0086 42.7513C61.1631 42.6991 61.2657 42.6481 61.3683 42.5449C61.4709 42.4417 61.5734 42.2862 61.728 42.0798C61.728 42.0798 61.728 42.0798 61.728 42.0798ZM80.9669 42.4926L81.0189 42.8036C81.0189 42.8036 81.4305 42.8036 81.4305 42.8036C81.3785 42.6481 81.3785 42.4417 81.3785 42.1307C81.3785 42.1307 81.3785 38.4554 81.3785 38.4554L80.9669 38.4554L80.9669 39.9566C80.9669 39.9566 80.915 39.9566 80.915 39.9566C80.6579 39.7502 80.4008 39.5947 80.1436 39.5947C79.9385 39.5947 79.732 39.647 79.5268 39.8011C79.3723 39.9044 79.2178 40.0598 79.0633 40.3185C78.9607 40.525 78.9088 40.8359 78.9088 41.2501C78.9088 41.5088 78.9088 41.7675 79.0113 41.9752C79.0633 42.1817 79.1658 42.3894 79.3204 42.4926C79.423 42.6481 79.5775 42.699 79.6801 42.7513C79.8346 42.8545 79.9891 42.8545 80.1436 42.8545C80.2982 42.8545 80.5033 42.8023 80.6072 42.7513C80.7617 42.7003 80.8643 42.5971 80.9669 42.4926C80.9669 42.4926 80.9669 42.4926 80.9669 42.4926ZM80.1956 42.4926C80.1956 42.4926 80.1436 42.4926 80.1436 42.4926C79.8865 42.4926 79.6801 42.3894 79.5269 42.1817C79.3723 41.9752 79.3217 41.6643 79.3217 41.2501C79.3217 40.9391 79.3736 40.6805 79.4243 40.525C79.4762 40.3185 79.5788 40.214 79.7333 40.1108C79.8359 40.0076 79.9904 40.0076 80.1449 39.9553C80.1449 39.9553 80.1969 39.9553 80.1969 39.9553C80.2995 39.9553 80.454 40.0076 80.5566 40.1108C80.7111 40.1631 80.8137 40.2663 80.9682 40.4218C80.9682 40.4218 80.9682 42.0784 80.9682 42.0784C80.8137 42.2339 80.6591 42.3371 80.5566 42.3894C80.454 42.4417 80.2982 42.4926 80.1956 42.4926C80.1956 42.4926 80.1956 42.4926 80.1956 42.4926ZM63.3226 47.0995C63.3226 47.0995 63.2706 47.0995 63.2706 47.0995C63.0135 46.8408 62.7564 46.7376 62.4993 46.7376C62.4993 46.7376 62.4474 46.7376 62.4474 46.7376C62.2928 46.7376 62.0877 46.7899 61.8812 46.8931C61.7267 46.9963 61.5722 47.2041 61.4176 47.4105C61.315 47.6692 61.2125 47.9801 61.2125 48.342C61.2125 48.653 61.2644 48.9117 61.367 49.1181C61.4189 49.3246 61.5215 49.5323 61.676 49.6355C61.7786 49.7387 61.9332 49.8419 62.0357 49.8942C62.1903 49.9465 62.3448 49.9974 62.4993 49.9974C62.6538 49.9974 62.859 49.9452 62.9629 49.8942C63.1174 49.791 63.22 49.7387 63.3226 49.6355C63.3226 49.6355 63.3745 49.9465 63.3745 49.9465L63.7342 49.9465L63.7342 45.5983L63.3226 45.5983L63.3226 47.0995L63.3226 47.0995ZM63.3226 49.2213C63.168 49.3768 63.0135 49.48 62.9109 49.5323C62.8083 49.5846 62.6538 49.6355 62.5512 49.6355C62.5512 49.6355 62.4993 49.6355 62.4993 49.6355C62.2422 49.5833 62.0357 49.48 61.8825 49.2736C61.728 49.0672 61.6773 48.7562 61.6773 48.3943C61.6773 48.0834 61.6773 47.8247 61.7799 47.6692C61.8319 47.4627 61.9344 47.3073 62.089 47.255C62.1916 47.1518 62.3461 47.0995 62.5006 47.0995C62.5006 47.0995 62.5526 47.0995 62.5526 47.0995C62.6551 47.0995 62.8097 47.1518 62.9122 47.2027C63.0668 47.306 63.1693 47.4092 63.3239 47.5647C63.3239 47.5647 63.3239 49.2213 63.3239 49.2213C63.3239 49.2213 63.3226 49.2213 63.3226 49.2213ZM95.3701 38.4045L95.7818 38.4045L95.7818 38.9218L95.3701 38.9218L95.3701 38.4045ZM98.3541 42.3385C98.2516 42.4417 98.097 42.4939 97.8906 42.4939C97.6854 42.4939 97.5309 42.4417 97.427 42.3385C97.3244 42.2352 97.2218 42.0798 97.118 41.9243C97.066 41.7178 97.066 41.5101 97.066 41.2514C97.066 40.9927 97.066 40.734 97.118 40.5786C97.2205 40.3721 97.3231 40.2166 97.427 40.1121C97.5296 40.0089 97.6841 39.9566 97.8906 39.9566C97.9931 39.9566 98.0957 40.0089 98.1996 40.0599C98.3035 40.1108 98.4048 40.1631 98.4567 40.2663C98.5087 40.3695 98.5593 40.4727 98.6113 40.5772C98.6113 40.5772 99.0229 40.474 99.0229 40.474C98.9203 40.1631 98.7658 39.9566 98.6113 39.8534C98.4061 39.6979 98.1996 39.5947 97.8906 39.5947C97.6335 39.5947 97.427 39.6979 97.2218 39.8012C97.0167 39.9566 96.8621 40.1121 96.7582 40.3708C96.6544 40.6295 96.6037 40.8882 96.6037 41.2501C96.6037 41.5611 96.6557 41.8707 96.7582 42.0785C96.8608 42.3372 97.0154 42.5449 97.2218 42.6481C97.427 42.8036 97.6335 42.8545 97.8906 42.8545C98.0957 42.8545 98.2503 42.8545 98.4048 42.7513C98.5074 42.6991 98.6619 42.6481 98.7645 42.5449C98.8671 42.4417 98.9697 42.2862 99.0735 42.0784C99.0735 42.0784 98.7138 41.923 98.7138 41.923C98.6113 42.1307 98.5087 42.2862 98.3541 42.3384C98.3541 42.3384 98.3541 42.3385 98.3541 42.3385ZM77.6232 42.3894L77.6752 42.3894L77.6752 42.8036L78.0868 42.8036L78.0868 39.6979L77.6752 39.6979C77.6752 39.6979 77.6752 42.0275 77.6752 42.0275C77.5206 42.1307 77.4181 42.2339 77.2116 42.3384C77.0571 42.4417 76.9025 42.4939 76.748 42.4939C76.5935 42.4939 76.4909 42.4417 76.3883 42.3384C76.3364 42.2862 76.2857 42.132 76.2857 41.9243C76.2857 41.9243 76.2857 39.6992 76.2857 39.6992L75.8222 39.6992C75.8222 39.6992 75.8222 41.9243 75.8222 41.9243C75.8222 42.2862 75.9247 42.4939 76.0793 42.6494C76.2844 42.8049 76.4909 42.8558 76.748 42.8558C76.8506 42.8558 76.9532 42.8558 77.0571 42.8036C77.1596 42.7513 77.2622 42.7003 77.3661 42.6481C77.4687 42.5449 77.5726 42.4926 77.6232 42.3894C77.6232 42.3894 77.6232 42.3894 77.6232 42.3894ZM95.3701 39.6979L95.7818 39.6979L95.7818 42.8036L95.3701 42.8036L95.3701 39.6979ZM88.4776 39.5947C88.3231 39.5947 88.2205 39.647 88.1179 39.6979C88.0153 39.6979 87.9127 39.7502 87.7582 39.8534C87.6556 39.9057 87.553 40.0089 87.5011 40.1121C87.4492 39.9566 87.3466 39.8534 87.192 39.7502C87.0375 39.647 86.883 39.5947 86.6778 39.5947C86.5233 39.5947 86.3688 39.647 86.2143 39.7502C86.0597 39.8025 85.9572 39.9057 85.8026 40.0612C85.8026 40.0612 85.8026 39.6992 85.8026 39.6992L85.3391 39.6992L85.3391 42.8049L85.8026 42.8049C85.8026 42.8049 85.8026 40.4753 85.8026 40.4753C85.9572 40.3199 86.1117 40.1644 86.2143 40.1134C86.3168 40.0102 86.4714 39.9579 86.6259 39.9579C86.7804 39.9579 86.883 40.0102 86.9856 40.1134C87.0882 40.2166 87.1401 40.3721 87.1401 40.5799C87.1401 40.5799 87.1401 42.8049 87.1401 42.8049L87.5517 42.8049C87.5517 42.8049 87.5517 40.4753 87.5517 40.4753C87.7063 40.3199 87.8608 40.1644 87.9634 40.1134C88.1179 40.0102 88.2205 39.958 88.4269 39.958C88.5295 39.958 88.6841 40.0102 88.736 40.1134C88.8386 40.2166 88.8905 40.3721 88.8905 40.5799C88.8905 40.5799 88.8905 42.8049 88.8905 42.8049L89.3021 42.8049C89.3021 42.8049 89.3021 40.5799 89.3021 40.5799C89.3021 40.218 89.2502 39.9593 89.097 39.8038C88.8892 39.698 88.6827 39.5947 88.4776 39.5947C88.4776 39.5947 88.4776 39.5947 88.4776 39.5947ZM93.8782 39.9057C93.7756 40.0089 93.673 40.1121 93.6211 40.2676C93.6211 40.2676 93.6211 39.6979 93.6211 39.6979L93.1575 39.6979L93.1575 42.8036L93.6211 42.8036C93.6211 42.8036 93.6211 41.0437 93.6211 41.0437C93.673 40.8372 93.7756 40.6817 93.8262 40.5263C93.9288 40.3708 94.0314 40.2676 94.1859 40.1644C94.2885 40.1121 94.4431 40.0611 94.5976 40.0611C94.5976 40.0611 94.5976 39.647 94.5976 39.647C94.4431 39.647 94.2885 39.647 94.1859 39.6992C94.0847 39.7502 93.9808 39.8011 93.8782 39.9057C93.8782 39.9057 93.8782 39.9057 93.8782 39.9057ZM65.1236 42.8558C65.3807 42.8558 65.6378 42.8036 65.7923 42.6494C65.9975 42.4939 66.152 42.2875 66.2559 42.0798C66.3079 41.8211 66.3585 41.5624 66.3585 41.2514C66.3585 40.9405 66.3066 40.6308 66.2559 40.4231C66.1533 40.1644 65.9988 39.9566 65.7923 39.8025C65.6378 39.6992 65.3807 39.596 65.1236 39.596C64.8665 39.596 64.6094 39.6992 64.4029 39.8025C64.2484 39.9579 64.0939 40.1644 63.9913 40.4231C63.8887 40.6295 63.8368 40.9405 63.8368 41.2514C63.8368 41.4578 63.8887 41.6656 63.9393 41.872C63.99 42.0784 64.0419 42.2339 64.1445 42.3894C64.299 42.5449 64.4016 42.6481 64.5562 42.7513C64.712 42.8036 64.9171 42.8558 65.1236 42.8558C65.1236 42.8558 65.1236 42.8558 65.1236 42.8558ZM64.3004 41.2514C64.3004 40.8372 64.3523 40.5263 64.5055 40.3198C64.66 40.1134 64.8652 39.9579 65.1223 39.9579C65.2768 39.9579 65.4314 40.0102 65.5339 40.1134C65.6885 40.2166 65.791 40.3721 65.843 40.5276C65.8949 40.734 65.9456 40.9417 65.9456 41.2527C65.9456 41.5114 65.8936 41.7191 65.843 41.9256C65.791 42.132 65.6885 42.2365 65.5339 42.3397C65.4314 42.443 65.2768 42.4952 65.1223 42.4952C64.8652 42.4952 64.6587 42.392 64.5055 42.1843C64.3523 41.9243 64.3004 41.6133 64.3004 41.2514C64.3004 41.2514 64.3004 41.2514 64.3004 41.2514ZM66.8208 47.6691C66.8208 47.4627 66.7688 47.3072 66.6662 47.1517C66.5637 46.9962 66.4091 46.893 66.2546 46.8408C66.1001 46.7885 65.9456 46.7375 65.7404 46.7375C65.4833 46.7375 65.2768 46.7898 65.1236 46.893C65.0717 46.893 65.0717 46.893 65.0717 46.9453C64.8665 47.0485 64.712 47.204 64.6081 47.4117C64.6081 47.4117 64.9678 47.6181 64.9678 47.6181C65.0197 47.5149 65.0703 47.4627 65.1223 47.3595C65.1223 47.3595 65.2249 47.2562 65.2249 47.2562C65.3794 47.153 65.5339 47.1008 65.7391 47.1008C65.8936 47.1008 65.9962 47.153 66.0988 47.153C66.2014 47.2053 66.2533 47.2562 66.3039 47.3595C66.3559 47.4627 66.4065 47.5659 66.4065 47.6704C66.4065 47.6704 66.4065 47.8768 66.4065 47.8768C66.0468 47.9291 65.7378 47.9801 65.4807 48.0833C65.3781 48.1355 65.2236 48.1865 65.121 48.2388C65.069 48.2388 64.9665 48.291 64.9158 48.342C64.8132 48.4452 64.6587 48.5484 64.6068 48.6529C64.5548 48.8084 64.5042 48.9639 64.5042 49.1194C64.5042 49.4303 64.6068 49.6367 64.7613 49.7922C64.8639 49.8445 64.9665 49.9477 65.121 49.9477C65.1729 50 65.2755 50 65.3781 50C65.7897 50 66.0988 49.8445 66.4065 49.4826C66.4065 49.4826 66.4585 49.949 66.4585 49.949C66.4585 49.949 66.8701 49.949 66.8701 49.949C66.8182 49.7426 66.8182 49.5348 66.8182 49.2762C66.8182 49.2762 66.8182 47.6691 66.8182 47.6691C66.8182 47.6691 66.8208 47.6691 66.8208 47.6691ZM66.4091 49.1181C66.2546 49.2735 66.1001 49.3768 65.9456 49.48C65.7404 49.5832 65.5859 49.6355 65.4314 49.6355C65.3288 49.6355 65.2262 49.5832 65.1223 49.48C65.1223 49.48 65.0704 49.48 65.0704 49.48C64.9678 49.3768 64.9158 49.2735 64.9158 49.1181C64.9158 49.0148 64.9678 48.8594 65.0704 48.7562C65.1223 48.7562 65.1223 48.7562 65.1223 48.7039C65.2249 48.6007 65.3794 48.5484 65.5859 48.4452C65.791 48.3929 66.0495 48.2897 66.4091 48.2388C66.4091 48.2388 66.4091 49.1181 66.4091 49.1181C66.4091 49.1181 66.4091 49.1181 66.4091 49.1181ZM67.5415 40.474C67.6441 40.3186 67.7986 40.2153 67.9531 40.1121C68.1077 40.0089 68.2622 39.9566 68.4167 39.9566C68.7764 39.9566 68.9309 40.1631 68.9309 40.5263C68.9309 40.5263 68.9309 42.8036 68.9309 42.8036L69.3413 42.8036C69.3413 42.8036 69.3413 40.5263 69.3413 40.5263C69.3413 40.3708 69.3413 40.2153 69.2893 40.1121C69.2374 39.9566 69.1867 39.9057 69.0842 39.8012C69.0322 39.7489 68.9296 39.6979 68.827 39.6457C68.7245 39.6457 68.5699 39.5934 68.4673 39.5934C68.3128 39.5934 68.1583 39.6457 68.0038 39.7489C67.8492 39.8012 67.6947 39.9553 67.5402 40.1108C67.5402 40.1108 67.5402 39.6966 67.5402 39.6966L67.1286 39.6966L67.1286 42.8023L67.5402 42.8023L67.5402 40.474C67.5402 40.474 67.5415 40.474 67.5415 40.474ZM91.872 42.3385C91.7175 42.4417 91.5629 42.4939 91.3578 42.4939C91.3578 42.4939 91.2552 42.4939 91.2552 42.4939C91.1526 42.4417 90.9981 42.3907 90.8955 42.3385C90.7929 42.2352 90.6903 42.0798 90.5864 41.9243C90.4839 41.7688 90.4839 41.5624 90.4839 41.3037C90.4839 41.3037 92.4901 41.3037 92.4901 41.3037C92.4901 41.3037 92.4901 41.045 92.4901 41.045C92.4901 40.5785 92.3356 40.2166 92.1304 39.9579C91.9252 39.7515 91.6162 39.596 91.3071 39.596C91.3071 39.596 91.2552 39.596 91.2552 39.596C91.1006 39.596 90.9461 39.6483 90.7916 39.6992C90.6371 39.8025 90.4825 39.9057 90.38 40.0612C90.2774 40.1644 90.1748 40.3721 90.1229 40.5785C90.0709 40.785 90.0203 40.9927 90.0203 41.2514C90.0203 41.6133 90.1229 41.9243 90.2255 42.1307C90.328 42.3894 90.5345 42.5972 90.689 42.7004C90.8942 42.8036 91.0487 42.8558 91.2552 42.8558C91.2552 42.8558 91.3578 42.8558 91.3578 42.8558C91.6149 42.8558 91.7694 42.8036 91.9239 42.7526C92.0784 42.7004 92.181 42.5971 92.2836 42.4939C92.3862 42.3907 92.4888 42.2875 92.5407 42.132C92.5407 42.132 92.2317 41.9765 92.2317 41.9765C92.1291 42.1307 92.0265 42.2339 91.872 42.3385C91.872 42.3385 91.872 42.3385 91.872 42.3385ZM90.7409 40.2153C90.8435 40.0598 91.0499 40.0089 91.2551 39.9566C91.2551 39.9566 91.3071 39.9566 91.3071 39.9566C91.4096 39.9566 91.5122 40.0089 91.6161 40.0598C91.72 40.1108 91.7706 40.1631 91.8732 40.2663C91.9252 40.3185 91.9758 40.4218 91.9758 40.5772C92.0277 40.6805 92.0277 40.7837 92.0277 40.9391C92.0277 40.9391 90.4851 40.9391 90.4851 40.9391C90.4838 40.6295 90.5864 40.423 90.7409 40.2153C90.7409 40.2153 90.7409 40.2153 90.7409 40.2153ZM108.179 40.5263C108.179 40.3199 108.127 40.1644 108.024 40.0089C107.922 39.8534 107.767 39.7502 107.613 39.6979C107.458 39.6457 107.304 39.5947 107.098 39.5947C107.098 39.5947 106.996 39.5947 106.996 39.5947C106.791 39.647 106.584 39.6979 106.379 39.8012C106.225 39.9044 106.07 40.0599 105.915 40.2676C105.915 40.2676 106.327 40.474 106.327 40.474C106.379 40.3185 106.43 40.2153 106.584 40.1121C106.687 40.0599 106.841 40.0089 106.996 40.0089C107.048 39.9566 107.048 39.9566 107.098 39.9566C107.253 39.9566 107.356 40.0089 107.407 40.0599C107.51 40.0599 107.613 40.1631 107.665 40.2153C107.717 40.3185 107.717 40.4218 107.717 40.5772C107.717 40.5772 107.717 40.7327 107.717 40.7327C107.459 40.785 107.202 40.8359 106.996 40.8882C106.944 40.8882 106.893 40.9405 106.841 40.9405C106.636 40.9927 106.43 41.0959 106.275 41.1992C106.121 41.3024 106.018 41.4056 105.966 41.5611C105.864 41.6643 105.864 41.8198 105.864 42.0275C105.864 42.2862 105.915 42.4939 106.121 42.6481C106.275 42.8036 106.48 42.8545 106.737 42.8545C106.737 42.8545 106.995 42.8545 106.995 42.8545C107.304 42.7513 107.509 42.5958 107.766 42.3881C107.766 42.3881 107.818 42.8023 107.818 42.8023C107.818 42.8023 108.229 42.8023 108.229 42.8023C108.178 42.5958 108.178 42.3881 108.178 42.1294C108.178 42.1294 108.178 40.5263 108.178 40.5263C108.178 40.5263 108.179 40.5263 108.179 40.5263ZM107.717 41.9753C107.614 42.1307 107.459 42.2339 107.305 42.3372C107.202 42.3894 107.1 42.4404 106.996 42.4404C106.944 42.4926 106.841 42.4926 106.791 42.4926C106.688 42.4926 106.534 42.4404 106.431 42.3372C106.328 42.2339 106.276 42.1307 106.276 42.0262C106.276 41.8707 106.328 41.7152 106.431 41.612C106.534 41.5088 106.688 41.4056 106.945 41.3011C106.945 41.3011 106.997 41.3011 106.997 41.3011C107.202 41.1979 107.461 41.1456 107.718 41.0946C107.718 41.0946 107.718 41.9753 107.718 41.9753C107.718 41.9753 107.717 41.9753 107.717 41.9753ZM73.7134 40.3199C73.2498 40.1644 72.9927 40.0612 72.7875 39.9579C72.633 39.8547 72.5304 39.6992 72.5304 39.4915C72.5824 39.2851 72.633 39.0773 72.7875 38.9741C72.8901 38.8709 73.0966 38.8186 73.3537 38.8186C73.6108 38.8186 73.8679 38.8709 74.0224 39.0251C74.1769 39.1805 74.2795 39.336 74.3315 39.5425C74.3315 39.5425 74.795 39.4392 74.795 39.4392C74.6925 39.2328 74.5899 39.0251 74.486 38.8696C74.3315 38.7141 74.1769 38.6109 73.9718 38.5077C73.8173 38.4554 73.6121 38.4045 73.355 38.4045C73.2005 38.4045 72.9953 38.4045 72.8408 38.5077C72.6862 38.5599 72.5317 38.6109 72.4291 38.7141C72.3266 38.8173 72.224 38.9205 72.172 39.076C72.1201 39.2315 72.0695 39.3347 72.0695 39.5425C72.0695 39.8012 72.172 40.0598 72.3785 40.2153C72.5837 40.3708 72.8927 40.5263 73.3044 40.6818C73.716 40.8372 74.025 40.9927 74.2302 41.0959C74.3847 41.2514 74.4873 41.4069 74.4873 41.6656C74.4873 41.8211 74.4354 41.9765 74.3847 42.0798C74.3328 42.183 74.2302 42.2862 74.0757 42.3385C73.9211 42.4417 73.7666 42.4417 73.5615 42.4417C73.2524 42.4417 73.0472 42.3894 72.8408 42.183C72.6862 42.0275 72.5317 41.8211 72.4291 41.5624C72.4291 41.5624 72.0175 41.7178 72.0175 41.7178C72.1201 42.0798 72.3266 42.3385 72.5317 42.5462C72.7888 42.7526 73.0979 42.8572 73.5095 42.8572C73.7666 42.8572 74.0237 42.8049 74.1783 42.7539C74.3834 42.7017 74.538 42.5985 74.6418 42.4952C74.7444 42.3398 74.847 42.2365 74.899 42.0811C74.9509 41.9256 74.9509 41.7701 74.9509 41.5637C74.9509 41.2527 74.8483 41.0463 74.6418 40.8385C74.4341 40.6818 74.125 40.5263 73.7134 40.3199C73.7134 40.3199 73.7134 40.3199 73.7134 40.3199ZM101.903 40.5263C101.903 40.3199 101.851 40.1644 101.748 40.0089C101.646 39.8534 101.543 39.7502 101.337 39.6979C101.182 39.6457 101.028 39.5947 100.823 39.5947C100.823 39.5947 100.771 39.5947 100.771 39.5947C100.514 39.647 100.307 39.6979 100.154 39.8012C99.9487 39.9044 99.7942 40.0599 99.6903 40.2676C99.6903 40.2676 100.05 40.474 100.05 40.474C100.102 40.3185 100.205 40.2153 100.307 40.1121C100.462 40.0599 100.564 40.0089 100.771 40.0089C100.771 39.9566 100.823 39.9566 100.823 39.9566C100.977 39.9566 101.08 40.0089 101.182 40.0599C101.285 40.0599 101.337 40.1631 101.388 40.2153C101.439 40.3185 101.49 40.4218 101.49 40.5772C101.49 40.5772 101.49 40.7327 101.49 40.7327C101.181 40.785 100.976 40.8359 100.769 40.8882C100.717 40.8882 100.667 40.9405 100.615 40.9405C100.358 40.9927 100.151 41.0959 99.9981 41.1992C99.8955 41.3024 99.7929 41.4056 99.689 41.5611C99.6371 41.6643 99.5865 41.8198 99.5865 42.0275C99.5865 42.2862 99.689 42.4939 99.8436 42.6481C99.9981 42.8036 100.203 42.8545 100.46 42.8545C100.46 42.8545 100.769 42.8545 100.769 42.8545C101.027 42.7513 101.284 42.5958 101.49 42.3881C101.49 42.3881 101.542 42.8023 101.542 42.8023C101.542 42.8023 101.954 42.8023 101.954 42.8023C101.902 42.5958 101.902 42.3881 101.902 42.1294C101.902 42.1294 101.902 40.5263 101.902 40.5263C101.902 40.5263 101.903 40.5263 101.903 40.5263ZM101.491 41.9753C101.337 42.1307 101.182 42.2339 101.028 42.3372C100.925 42.3894 100.823 42.4404 100.771 42.4404C100.668 42.4926 100.616 42.4926 100.514 42.4926C100.411 42.4926 100.309 42.4404 100.205 42.3372C100.05 42.2339 99.9995 42.1307 99.9995 42.0262C99.9995 41.8707 100.051 41.7152 100.205 41.612C100.307 41.5088 100.462 41.4056 100.668 41.3011C100.668 41.3011 100.771 41.3011 100.771 41.3011C100.925 41.1979 101.182 41.1456 101.491 41.0946C101.491 41.0946 101.491 41.9753 101.491 41.9753C101.491 41.9753 101.491 41.9753 101.491 41.9753ZM104.784 39.8012C104.733 39.7489 104.63 39.6979 104.527 39.6457C104.425 39.6457 104.322 39.5934 104.168 39.5934C104.013 39.5934 103.859 39.6457 103.704 39.7489C103.55 39.8012 103.395 39.9553 103.292 40.1108C103.292 40.1108 103.241 40.1108 103.241 40.1108L103.241 39.6966L102.829 39.6966L102.829 42.8023L103.241 42.8023C103.241 42.8023 103.241 40.4727 103.241 40.4727C103.395 40.3172 103.498 40.214 103.704 40.1108C103.859 40.0076 104.013 39.9553 104.168 39.9553C104.477 39.9553 104.631 40.1618 104.631 40.525C104.631 40.525 104.631 42.8023 104.631 42.8023L105.095 42.8023C105.095 42.8023 105.095 40.525 105.095 40.525C105.095 40.3695 105.043 40.214 104.992 40.1108C104.938 39.9566 104.887 39.9057 104.784 39.8012C104.784 39.8012 104.784 39.8012 104.784 39.8012ZM81.0189 47.0472C80.9163 47.1504 80.8137 47.2536 80.7617 47.4091C80.7617 47.4091 80.7098 47.4091 80.7098 47.4091L80.7098 46.7885L80.2982 46.7885L80.2982 49.9451L80.7098 49.9451C80.7098 49.9451 80.7098 48.1852 80.7098 48.1852C80.8124 47.9788 80.8643 47.771 80.9669 47.6156C81.0695 47.5123 81.1721 47.3569 81.276 47.3046C81.4305 47.2014 81.585 47.2014 81.7395 47.2014C81.7395 47.2014 81.7395 46.7349 81.7395 46.7349C81.585 46.7349 81.4305 46.7872 81.3279 46.8382C81.1734 46.893 81.0695 46.944 81.0189 47.0472C81.0189 47.0472 81.0189 47.0472 81.0189 47.0472ZM75.5664 46.7885L75.978 46.7885L75.978 49.9451L75.5664 49.9451L75.5664 46.7885ZM72.7875 45.5983L72.2733 45.5983L72.2733 49.9465L74.7937 49.9465L74.7937 49.5323L72.7875 49.5323L72.7875 45.5983ZM87.0375 48.4975C86.883 48.342 86.6259 48.2388 86.3168 48.1356C86.0078 48.0323 85.7507 47.9291 85.6481 47.8769C85.5455 47.8246 85.4936 47.7214 85.4936 47.5659C85.4936 47.4104 85.5455 47.3072 85.6481 47.2549C85.7507 47.1517 85.8533 47.0995 86.0597 47.0995C86.2143 47.0995 86.3688 47.1517 86.4714 47.2027C86.5739 47.3059 86.7285 47.4091 86.8311 47.5646C86.8311 47.5646 87.1401 47.3059 87.1401 47.3059C87.0241 47.1295 86.8643 46.9868 86.6765 46.8917C86.4713 46.7885 86.2649 46.7362 86.0597 46.7362C85.9052 46.7362 85.8026 46.7362 85.6481 46.7885C85.5455 46.8408 85.4429 46.8917 85.3391 46.944C85.2871 47.0472 85.1845 47.0995 85.1339 47.2027C85.0819 47.3059 85.0819 47.4614 85.0819 47.5646C85.0819 47.8233 85.1339 48.031 85.2871 48.1342C85.4416 48.2897 85.6987 48.3929 86.0078 48.4962C86.2649 48.5484 86.522 48.6516 86.6246 48.7026C86.7791 48.8058 86.8297 48.909 86.8297 49.1168C86.8297 49.22 86.7778 49.3755 86.6752 49.4787C86.5726 49.5819 86.4181 49.6341 86.2116 49.6341C85.8 49.6341 85.5429 49.4787 85.2858 49.1168C85.2858 49.1168 84.9767 49.3755 84.9767 49.3755C85.0793 49.5819 85.2858 49.7374 85.491 49.8419C85.6961 49.9451 85.9545 49.9974 86.2116 49.9974C86.3662 49.9974 86.5714 49.9451 86.7259 49.8941C86.8804 49.8432 87.0349 49.7387 87.1375 49.5832C87.2401 49.4277 87.292 49.2722 87.292 49.0658C87.2946 48.8071 87.1907 48.6007 87.0375 48.4975C87.0375 48.4975 87.0375 48.4975 87.0375 48.4975ZM69.4438 48.4975C69.2893 48.342 69.0322 48.2388 68.7231 48.1356C68.3634 48.0323 68.157 47.9291 68.0544 47.8769C67.9518 47.8246 67.8999 47.7214 67.8999 47.5659C67.8999 47.4104 67.9518 47.3072 68.0024 47.2549C68.105 47.1517 68.2596 47.0995 68.4141 47.0995C68.6192 47.0995 68.7231 47.1517 68.8776 47.2027C68.8776 47.2027 69.2373 47.5646 69.2373 47.5646C69.2373 47.5646 69.5464 47.3059 69.5464 47.3059C69.4304 47.1295 69.2706 46.9868 69.0828 46.8917C68.8776 46.7885 68.6712 46.7362 68.466 46.7362C68.3115 46.7362 68.2089 46.7362 68.0544 46.7885C67.9518 46.8408 67.8492 46.8917 67.7453 46.944C67.6427 47.0472 67.5908 47.0995 67.5402 47.2027C67.4882 47.3059 67.4376 47.4614 67.4376 47.5646C67.4376 47.8233 67.5402 48.031 67.6947 48.1342C67.8492 48.2897 68.0544 48.3929 68.3634 48.4962C68.6725 48.5484 68.8776 48.6516 69.0322 48.7026C69.1867 48.8058 69.2373 48.909 69.2373 49.1168C69.2373 49.22 69.1854 49.3755 69.0828 49.4787C68.9802 49.5819 68.7738 49.6341 68.5686 49.6341C68.2089 49.6341 67.8998 49.4787 67.6947 49.1168C67.6947 49.1168 67.335 49.3755 67.335 49.3755C67.4895 49.5819 67.6947 49.7374 67.9012 49.8419C68.1063 49.9451 68.3647 49.9974 68.5699 49.9974C68.7751 49.9974 68.9815 49.9451 69.136 49.8941C69.2906 49.8419 69.4451 49.7387 69.4957 49.5832C69.5983 49.4277 69.6503 49.2722 69.6503 49.0658C69.6503 48.8071 69.5983 48.6007 69.4438 48.4975C69.4438 48.4975 69.4438 48.4975 69.4438 48.4975ZM83.9509 49.48C83.7964 49.5832 83.6419 49.6355 83.4367 49.6355C83.3848 49.6355 83.3848 49.6355 83.3341 49.5832C83.1796 49.5832 83.077 49.5309 82.9745 49.48C82.8199 49.3768 82.7173 49.2213 82.6654 49.0658C82.5628 48.8594 82.5109 48.7039 82.5109 48.4452C82.5109 48.4452 84.5171 48.4452 84.5171 48.4452C84.5171 48.4452 84.5171 48.1865 84.5171 48.1865C84.5171 47.6691 84.4145 47.3072 84.2081 47.0995C84.0029 46.8408 83.6938 46.7375 83.3341 46.7375C83.129 46.7375 82.9745 46.7898 82.8199 46.8408C82.6654 46.944 82.5628 47.0472 82.4602 47.1517C82.3577 47.3072 82.2551 47.5136 82.2031 47.6691C82.1512 47.8755 82.1006 48.1355 82.1006 48.342C82.1006 48.7039 82.1525 49.0148 82.3057 49.2735C82.4083 49.5322 82.5628 49.6877 82.7693 49.8432C82.9238 49.8954 83.129 49.9464 83.3354 49.9987C83.3354 49.9987 83.438 49.9987 83.438 49.9987C83.6432 49.9987 83.8497 49.9464 84.0042 49.8954C84.1587 49.8432 84.2613 49.74 84.3639 49.6367C84.4665 49.5335 84.5184 49.4303 84.621 49.2748C84.621 49.2748 84.3119 49.0684 84.3119 49.0684C84.2081 49.2735 84.1055 49.3768 83.9509 49.48C83.9509 49.48 83.9509 49.48 83.9509 49.48ZM82.768 47.3581C82.9225 47.2027 83.077 47.0994 83.3341 47.0994C83.3341 47.0994 83.386 47.0994 83.386 47.0994C83.4886 47.0994 83.5912 47.1517 83.6951 47.2027C83.7977 47.2027 83.8496 47.3059 83.9003 47.3581C84.0029 47.4614 84.0029 47.5646 84.0548 47.6691C84.1068 47.8246 84.1068 47.9278 84.1068 48.0833C84.1068 48.0833 82.5641 48.0833 82.5641 48.0833C82.5615 47.7723 82.6641 47.5659 82.768 47.3581C82.768 47.3581 82.768 47.3581 82.768 47.3581ZM79.2178 47.0995C79.0633 46.9963 78.9607 46.8931 78.8062 46.8408C78.6517 46.7886 78.4972 46.7376 78.3946 46.7376C78.3946 46.7376 78.3426 46.7376 78.3426 46.7376C78.1375 46.7376 77.8284 46.8408 77.5713 47.0995C77.5713 47.0995 77.5194 47.0995 77.5194 47.0995L77.5194 45.5983L77.1077 45.5983L77.1077 49.9465L77.3648 49.9465C77.3648 49.9465 77.4674 49.5846 77.4674 49.5846C77.6219 49.74 77.7245 49.8433 77.8791 49.8955C78.0336 49.9478 78.1881 49.9987 78.3426 49.9987C78.7023 49.9987 78.9594 49.8433 79.2165 49.5846C79.4736 49.3259 79.6282 48.9117 79.6282 48.342C79.6282 48.0833 79.5762 47.8246 79.5256 47.6169C79.4243 47.4105 79.3204 47.255 79.2178 47.0995C79.2178 47.0995 79.2178 47.0995 79.2178 47.0995ZM78.9607 49.2735C78.8062 49.48 78.601 49.5845 78.3439 49.6354C78.1894 49.6354 78.0868 49.5832 77.9323 49.5322C77.8297 49.48 77.6752 49.3258 77.5207 49.2213C77.5207 49.2213 77.5207 47.5646 77.5207 47.5646C77.6752 47.4091 77.7778 47.3059 77.9323 47.2027C78.0868 47.1504 78.1894 47.0994 78.3439 47.0994C78.4985 47.0994 78.653 47.1517 78.7556 47.2549C78.9101 47.3072 79.0127 47.4614 79.0646 47.6691C79.1672 47.8246 79.1672 48.0833 79.1672 48.3942C79.1672 48.8071 79.1153 49.0658 78.9607 49.2735C78.9607 49.2735 78.9607 49.2735 78.9607 49.2735ZM75.5664 45.5473L75.978 45.5473L75.978 46.0647L75.5664 46.0647L75.5664 45.5473Z" fill="#FFFFFF" />
</svg>